<svg xmlns="http://www.w3.org/2000/svg" viewBox="0 0 91.28 84.63"><defs><style>.cls-1{fill:#256782;}</style></defs><title>Middel 1</title><g id="Laag_2" data-name="Laag 2"><g id="Line"><path class="cls-1" d="M52.76,84.63h-16a2,2,0,0,1-2-2v-6H21.88a2,2,0,0,1,0-4H34.76c0-9.21-1.1-8,8-8v-8H12.57C-2.7,55-5.19,30.8,11.4,25.42c.09-7.25,8.48-17.76,20.5-15.17,7.59-13,30.62-16,41.2,5.21,4.29.62,18.18,3.93,18.18,20.89,0,14.95-9.89,20.28-19.14,20.28H46.76v8c9.21,0,8-1.1,8,8H67.63a2,2,0,0,1,0,4H54.76v6A2,2,0,0,1,52.76,84.63Zm-14-4h12v-12h-12Zm33.38-28c4.55,0,15.14-1.59,15.14-16.28,0-16.17-15-17-15.61-17a2,2,0,0,1-1.75-1.22c-.06-.14-6.09-14-18.7-14s-16.38,9.2-16.41,9.29a2,2,0,0,1-2.57,1.14c-9.79-3.61-18.09,7.36-16.78,11.93a2,2,0,0,1-1.57,2.49C.8,31.36,1,51.05,12.9,52.63Z"/></g></g></svg>