<?xml version="1.0" encoding="utf-8"?>
<!-- Generator: Adobe Illustrator 22.1.0, SVG Export Plug-In . SVG Version: 6.00 Build 0)  -->
<svg version="1.1" xmlns="http://www.w3.org/2000/svg" xmlns:xlink="http://www.w3.org/1999/xlink" x="0px" y="0px"
	 viewBox="0 0 1666 908" style="enable-background:new 0 0 1666 908;" xml:space="preserve">
<style type="text/css">
	.st0{fill:#F7F9F9;}
	.st1{fill:#455560;}
	.st2{font-family:'Poppins';}
	.st3{font-size:30.3698px;}
	.st4{fill:none;}
	.st5{fill:#8C9393;}
	.st6{font-family:'Poppins';}
	.st7{font-size:14.0172px;}
	.st8{fill:#EAEFEF;}
	.st9{fill:url(#SVGID_1_);}
	.st10{fill:url(#SVGID_2_);}
	.st11{fill:none;stroke:#F4B545;stroke-width:5;stroke-linecap:round;stroke-linejoin:round;}
	.st12{fill:#F4B545;}
	.st13{fill:none;stroke:#F4B545;stroke-width:5;}
	.st14{fill:url(#SVGID_3_);}
	.st15{fill:none;stroke:#F2D041;stroke-width:5;stroke-linecap:round;stroke-linejoin:round;}
	.st16{fill:#F2D041;}
	.st17{fill:none;stroke:#F2D041;stroke-width:5;}
	.st18{fill:url(#SVGID_4_);}
</style>
<g id="Background">
	<rect x="-67" y="-49" class="st0" width="1800" height="1200"/>
</g>
<g id="Emblem">
</g>
<g id="Text">
	<g>
		<g>
			<text transform="matrix(1 0 0 1 70.1587 137.334)" class="st1 st2 st3">Online Intermediary</text>
			<rect x="51.7" y="154.6" class="st4" width="290.4" height="81.7"/>
			<text transform="matrix(1 0 0 1 63.8159 162.1934)"><tspan x="0" y="0" class="st5 st6 st7">Common online intermediary business model’s rely heavily </tspan><tspan x="-11.1" y="14.4" class="st5 st6 st7">on the dependency of their business clients on their platform. </tspan><tspan x="-3.9" y="28.8" class="st5 st6 st7">Due to this dependency, platform fees have been able to </tspan><tspan x="54.8" y="43.3" class="st5 st6 st7">grow up to 25% per transaction.</tspan></text>
		</g>
	</g>
	<g>
		<g>
			<text transform="matrix(1 0 0 1 66.2939 538.1953)" class="st1 st2 st3">Payment Processors</text>
			<rect x="47.7" y="555.4" class="st4" width="290.4" height="81.7"/>
			<text transform="matrix(1 0 0 1 69.6846 563.0547)"><tspan x="0" y="0" class="st5 st6 st7">Payment processors or point of sales systems link your </tspan><tspan x="-19" y="14.4" class="st5 st6 st7">bank account or credit card so you can use these services to </tspan><tspan x="-11" y="28.8" class="st5 st6 st7">quickly and easily transfer money through their network. </tspan><tspan x="-19.9" y="43.3" class="st5 st6 st7">Operators like PayPal charge 3% to 4% fees for the use of </tspan><tspan x="20.8" y="57.7" class="st5 st6 st7">their service and network with credit cards.</tspan></text>
		</g>
	</g>
	<g>
		<g>
			<text transform="matrix(1 0 0 1 1331.8779 339.3291)" class="st1 st2 st3">Financial Institutions</text>
			<rect x="1317.7" y="356.6" class="st4" width="290.4" height="81.7"/>
			<text transform="matrix(1 0 0 1 1341.9004 364.1885)"><tspan x="0" y="0" class="st5 st6 st7">Banks and credit card companies usually incorporate </tspan><tspan x="-17" y="14.4" class="st5 st6 st7">payment and service features in digital supply &amp; demand </tspan><tspan x="-0.2" y="28.8" class="st5 st6 st7">portals. Fees ranging from 1% to 3% are common.</tspan></text>
		</g>
	</g>
	<g>
		<g>
			<text transform="matrix(1 0 0 1 1355.8135 735.0576)" class="st1 st2 st3">FOREX Exchange</text>
			<rect x="1317.6" y="752.3" class="st4" width="290.4" height="81.7"/>
			<text transform="matrix(1 0 0 1 1334.5786 759.917)"><tspan x="0" y="0" class="st5 st6 st7">Global participation on the BITEZ platform can be done </tspan><tspan x="-8.3" y="14.4" class="st5 st6 st7">by using the BITE token. No token conversion is needed to </tspan><tspan x="-12.5" y="28.8" class="st5 st6 st7">use the platform in varying countries or continents. Eliminat</tspan><tspan x="264.9" y="28.8" class="st5 st6 st7">-</tspan><tspan x="-14.8" y="43.3" class="st5 st6 st7">ing any conversion fees associated with food and beverage </tspan><tspan x="55.3" y="57.7" class="st5 st6 st7">consumption on a global scale.</tspan></text>
		</g>
	</g>
</g>
<g id="Shapes">
	<g id="W">
		<g id="Lines_4_">
		</g>
		<g id="Body_8_">
			<g id="Dark_shape_4_">
			</g>
			<g id="Shadow_4_">
			</g>
			<g id="Body_4_">
			</g>
		</g>
	</g>
	<g id="U">
		<g id="Lines_3_">
		</g>
		<g id="Body_7_">
			<g id="Dark_shape_3_">
				<path class="st8" d="M580,753c0,32,26,58,58,58h390c32,0,58-26,58-58s-26-58-58-58H638C606,695,580,721,580,753z"/>
			</g>
			<g id="Shadow_3_">
				<image style="overflow:visible;" width="502" height="113" xlink:href="8ED3418A.png"  transform="matrix(1 0 0 1 591 706)">
				</image>
			</g>
			<g id="Body_3_">
				<linearGradient id="SVGID_1_" gradientUnits="userSpaceOnUse" x1="833" y1="808.6426" x2="833" y2="697.348">
					<stop  offset="0" style="stop-color:#DAE5E5"/>
					<stop  offset="0.5494" style="stop-color:#F1F5F5"/>
					<stop  offset="1" style="stop-color:#FFFFFF"/>
				</linearGradient>
				<path class="st9" d="M1076,753c0-26.5-21.5-48-48-48l0,0H638l0,0l0,0c-26.5,0-48,21.5-48,48s21.5,48,48,48l0,0l0,0h390l0,0
					C1054.5,801,1076,779.5,1076,753z"/>
			</g>
		</g>
	</g>
	<g id="Z">
		<g id="Lines_2_">
		</g>
		<g id="Body_6_">
			<g id="Dark_shape_2_">
				<path class="st8" d="M580,551c0,32,26,58,58,58h390c32,0,58-26,58-58s-26-58-58-58H638C606,493,580,519,580,551z"/>
			</g>
			<g id="Shadow_2_">
				<image style="overflow:visible;" width="502" height="113" xlink:href="8ED3418E.png"  transform="matrix(1 0 0 1 591 504)">
				</image>
			</g>
			<g id="Body_2_">
				<linearGradient id="SVGID_2_" gradientUnits="userSpaceOnUse" x1="833" y1="606.6475" x2="833" y2="495.3529">
					<stop  offset="0" style="stop-color:#DAE5E5"/>
					<stop  offset="0.5494" style="stop-color:#F1F5F5"/>
					<stop  offset="1" style="stop-color:#FFFFFF"/>
				</linearGradient>
				<path class="st10" d="M1076,551c0-26.5-21.5-48-48-48l0,0H638l0,0l0,0c-26.5,0-48,21.5-48,48c0,26.5,21.5,48,48,48l0,0l0,0h390
					l0,0C1054.5,599,1076,577.5,1076,551z"/>
			</g>
		</g>
	</g>
	<g id="Y">
		<g id="Lines_1_">
			<g>
				<path class="st11" d="M630.2,271.4c-6.9,0.7-13.5,2.3-19.7,4.6"/>
				<line class="st11" x1="663.3" y1="271" x2="648.7" y2="271"/>
				<path class="st11" d="M630.2,426.6c-6.9-0.7-13.5-2.3-19.7-4.6"/>
				<line class="st11" x1="663.3" y1="427" x2="648.7" y2="427"/>
				<path class="st11" d="M587.3,289.7C570.6,304.1,560,325.3,560,349c0,23.7,10.6,44.9,27.3,59.3"/>
				<path class="st12" d="M594.5,289.7c0,3.9-3.2,7.1-7.1,7.1c-3.9,0-7.1-3.2-7.1-7.1c0-3.9,3.2-7.1,7.1-7.1
					C591.3,282.6,594.5,285.8,594.5,289.7z"/>
				<path class="st12" d="M594.5,408.3c0,3.9-3.2,7.1-7.1,7.1s-7.1-3.2-7.1-7.1c0-3.9,3.2-7.1,7.1-7.1S594.5,404.3,594.5,408.3z"/>
			</g>
			<g>
				<path class="st11" d="M1035.8,271.4c6.9,0.7,13.5,2.3,19.7,4.6"/>
				<line class="st11" x1="1002.7" y1="271" x2="1017.3" y2="271"/>
				<path class="st11" d="M1035.8,426.6c6.9-0.7,13.5-2.3,19.7-4.6"/>
				<line class="st11" x1="1002.7" y1="427" x2="1017.3" y2="427"/>
				<path class="st11" d="M1078.7,289.7c16.7,14.3,27.3,35.6,27.3,59.3c0,23.7-10.6,44.9-27.3,59.3"/>
				<path class="st12" d="M1071.5,289.7c0,3.9,3.2,7.1,7.1,7.1s7.1-3.2,7.1-7.1c0-3.9-3.2-7.1-7.1-7.1S1071.5,285.8,1071.5,289.7z"
					/>
				<path class="st12" d="M1071.5,408.3c0,3.9,3.2,7.1,7.1,7.1s7.1-3.2,7.1-7.1c0-3.9-3.2-7.1-7.1-7.1S1071.5,404.3,1071.5,408.3z"
					/>
			</g>
			<g>
				<path class="st13" d="M1151.6,551c0-8.6-7-15.6-15.6-15.6s-15.6,7-15.6,15.6c0,8.6,7,15.6,15.6,15.6S1151.6,559.6,1151.6,551z"
					/>
				<g>
					<path class="st13" d="M1151.6,551h14.4c5.5,0,10-4.5,10-10V359c0-5.5-4.5-10-10-10h-60"/>
				</g>
			</g>
		</g>
		<g id="Body_5_">
			<g id="Dark_shape_1_">
				<path class="st8" d="M580,349c0,32,26,58,58,58h390c32,0,58-26,58-58s-26-58-58-58H638C606,291,580,317,580,349z"/>
			</g>
			<g id="Shadow_1_">
				<image style="overflow:visible;" width="502" height="113" xlink:href="8ED34189.png"  transform="matrix(1 0 0 1 591 302)">
				</image>
			</g>
			<g id="Body_1_">
				<linearGradient id="SVGID_3_" gradientUnits="userSpaceOnUse" x1="833" y1="404.6524" x2="833" y2="293.3578">
					<stop  offset="0" style="stop-color:#DAE5E5"/>
					<stop  offset="0.5494" style="stop-color:#F1F5F5"/>
					<stop  offset="1" style="stop-color:#FFFFFF"/>
				</linearGradient>
				<path class="st14" d="M1076,349c0-26.5-21.5-48-48-48l0,0H638l0,0l0,0c-26.5,0-48,21.5-48,48c0,26.5,21.5,48,48,48l0,0l0,0h390
					l0,0C1054.5,397,1076,375.5,1076,349z"/>
			</g>
		</g>
	</g>
	<g id="X">
		<g id="Lines">
			<g>
				<path class="st15" d="M630.2,69.4c-6.9,0.7-13.5,2.3-19.7,4.6"/>
				<line class="st15" x1="663.3" y1="69" x2="648.7" y2="69"/>
				<path class="st15" d="M630.2,224.6c-6.9-0.7-13.5-2.3-19.7-4.6"/>
				<line class="st15" x1="663.3" y1="225" x2="648.7" y2="225"/>
				<path class="st15" d="M587.3,87.8C570.6,102.1,560,123.3,560,147c0,23.7,10.6,44.9,27.3,59.3"/>
				<path class="st16" d="M594.5,87.8c0,3.9-3.2,7.1-7.1,7.1c-3.9,0-7.1-3.2-7.1-7.1c0-3.9,3.2-7.1,7.1-7.1
					C591.3,80.6,594.5,83.8,594.5,87.8z"/>
				<path class="st16" d="M594.5,206.3c0,3.9-3.2,7.1-7.1,7.1s-7.1-3.2-7.1-7.1c0-3.9,3.2-7.1,7.1-7.1S594.5,202.3,594.5,206.3z"/>
			</g>
			<g>
				<path class="st17" d="M514.4,349c0-8.6,7-15.6,15.6-15.6s15.6,7,15.6,15.6c0,8.6-7,15.6-15.6,15.6S514.4,357.6,514.4,349z"/>
				<g>
					<path class="st17" d="M514.4,349H500c-5.5,0-10-4.5-10-10V157c0-5.5,4.5-10,10-10h60"/>
				</g>
			</g>
		</g>
		<g id="Shape">
			<g id="Dark_shape">
				<path class="st8" d="M580,147c0,32,26,58,58,58h390c32,0,58-26,58-58s-26-58-58-58H638C606,89,580,115,580,147z"/>
			</g>
			<g id="Shadow">
				<image style="overflow:visible;" width="502" height="113" xlink:href="8ED3418B.png"  transform="matrix(1 0 0 1 591 100)">
				</image>
			</g>
			<g id="Body">
				<linearGradient id="SVGID_4_" gradientUnits="userSpaceOnUse" x1="833" y1="202.6572" x2="833" y2="91.3627">
					<stop  offset="0" style="stop-color:#DAE5E5"/>
					<stop  offset="0.5494" style="stop-color:#F1F5F5"/>
					<stop  offset="1" style="stop-color:#FFFFFF"/>
				</linearGradient>
				<path class="st18" d="M1076,147c0-26.5-21.5-48-48-48l0,0H638l0,0l0,0c-26.5,0-48,21.5-48,48c0,26.5,21.5,48,48,48l0,0l0,0h390
					l0,0C1054.5,195,1076,173.5,1076,147z"/>
			</g>
		</g>
		<g>
			<path class="st11" d="M630.2,673.4c-6.9,0.7-13.5,2.3-19.7,4.6"/>
			<line class="st11" x1="663.3" y1="673" x2="648.7" y2="673"/>
			<path class="st11" d="M630.2,828.6c-6.9-0.7-13.5-2.3-19.7-4.6"/>
			<line class="st11" x1="663.3" y1="829" x2="648.7" y2="829"/>
			<path class="st11" d="M587.3,691.7C570.6,706.1,560,727.3,560,751c0,23.7,10.6,44.9,27.3,59.3"/>
			<path class="st12" d="M594.5,691.7c0,3.9-3.2,7.1-7.1,7.1c-3.9,0-7.1-3.2-7.1-7.1c0-3.9,3.2-7.1,7.1-7.1
				C591.3,684.6,594.5,687.8,594.5,691.7z"/>
			<path class="st12" d="M594.5,810.3c0,3.9-3.2,7.1-7.1,7.1s-7.1-3.2-7.1-7.1c0-3.9,3.2-7.1,7.1-7.1S594.5,806.3,594.5,810.3z"/>
		</g>
		<g>
			<path class="st15" d="M630.2,471.4c-6.9,0.7-13.5,2.3-19.7,4.6"/>
			<line class="st15" x1="663.3" y1="471" x2="648.7" y2="471"/>
			<path class="st15" d="M630.2,626.6c-6.9-0.7-13.5-2.3-19.7-4.6"/>
			<line class="st15" x1="663.3" y1="627" x2="648.7" y2="627"/>
			<path class="st15" d="M587.3,489.8C570.6,504.1,560,525.3,560,549c0,23.7,10.6,44.9,27.3,59.3"/>
			<path class="st16" d="M594.5,489.8c0,3.9-3.2,7.1-7.1,7.1c-3.9,0-7.1-3.2-7.1-7.1c0-3.9,3.2-7.1,7.1-7.1
				C591.3,482.6,594.5,485.8,594.5,489.8z"/>
			<path class="st16" d="M594.5,608.3c0,3.9-3.2,7.1-7.1,7.1s-7.1-3.2-7.1-7.1c0-3.9,3.2-7.1,7.1-7.1S594.5,604.3,594.5,608.3z"/>
		</g>
		<g>
			<path class="st17" d="M514.4,751c0-8.6,7-15.6,15.6-15.6s15.6,7,15.6,15.6c0,8.6-7,15.6-15.6,15.6S514.4,759.6,514.4,751z"/>
			<g>
				<path class="st17" d="M514.4,751H500c-5.5,0-10-4.5-10-10V559c0-5.5,4.5-10,10-10h60"/>
			</g>
		</g>
	</g>
</g>
<g id="Names">
	<text transform="matrix(1 0 0 1 706.2373 159.9443)" class="st1 st2 st3">Online Intermediary</text>
	<text transform="matrix(1 0 0 1 702.0005 361.9395)" class="st1 st2 st3">Financial Institutions</text>
	<text transform="matrix(1 0 0 1 706.3735 563.9346)" class="st1 st2 st3">Payment Processors</text>
	<text transform="matrix(1 0 0 1 726.0376 765.9297)" class="st1 st2 st3">FOREX Exchange</text>
</g>
<g id="Icons">
</g>
</svg>
