<?xml version="1.0" encoding="utf-8"?>
<!-- Generator: Adobe Illustrator 22.1.0, SVG Export Plug-In . SVG Version: 6.00 Build 0)  -->
<svg version="1.1" xmlns="http://www.w3.org/2000/svg" xmlns:xlink="http://www.w3.org/1999/xlink" x="0px" y="0px"
	 viewBox="0 0 1000 1000" style="enable-background:new 0 0 1000 1000;" xml:space="preserve">
<style type="text/css">
	.st0{opacity:0.15;}
	.st1{fill:#C7C5D6;}
	.st2{fill:#F45656;}
	.st3{font-family:'Poppins-Regular';}
	.st4{font-size:18px;}
	.st5{fill:#6A8D3A;}
	.st6{fill:#EA7D47;}
	.st7{fill:#FFD45C;}
	.st8{fill:#3687C9;}
	.st9{fill:#55929A;}
	.st10{display:none;}
	.st11{font-family:'Poppins-Regular';}
	.st12{font-size:12px;}
	.st13{display:inline;}
	.st14{display:inline;clip-path:url(#SVGID_2_);}
	.st15{fill:#BCAFAF;}
	.st16{fill:#9E57F2;}
	.st17{display:inline;clip-path:url(#SVGID_4_);}
	.st18{fill:#73973E;}
	.st19{display:inline;clip-path:url(#SVGID_6_);}
	.st20{fill:#5EA0A8;}
	.st21{display:inline;clip-path:url(#SVGID_8_);}
	.st22{fill:#3179B2;}
	.st23{display:inline;clip-path:url(#SVGID_10_);}
	.st24{display:inline;clip-path:url(#SVGID_12_);}
	.st25{fill:#DE5051;}
	.st26{display:inline;clip-path:url(#SVGID_14_);}
	.st27{fill:#EFAB4D;}
	.st28{display:inline;opacity:0.4;fill:#B5CDDA;}
	.st29{display:inline;fill:#E2DEDE;}
	.st30{fill:#DEDBDC;}
	.st31{fill:#E2DEDE;}
	.st32{fill:#8C8182;}
	.st33{fill:#C2B7B7;}
	.st34{fill:#888080;}
	.st35{fill:#BCB5B5;}
	.st36{fill:#8A8282;}
	.st37{fill:#BEB7B7;}
	.st38{clip-path:url(#SVGID_16_);}
	.st39{clip-path:url(#SVGID_18_);fill:url(#SVGID_19_);}
	.st40{clip-path:url(#SVGID_21_);fill:url(#SVGID_22_);}
	.st41{clip-path:url(#SVGID_24_);fill:url(#SVGID_25_);}
	.st42{clip-path:url(#SVGID_27_);fill:url(#SVGID_28_);}
	.st43{clip-path:url(#SVGID_30_);fill:url(#SVGID_31_);}
	.st44{clip-path:url(#SVGID_33_);fill:url(#SVGID_34_);}
	.st45{clip-path:url(#SVGID_36_);fill:url(#SVGID_37_);}
</style>
<g id="Shadows_under_circles">
	<g class="st0">
		<polygon class="st1" points="555.1,392.1 558.8,394.4 562.4,396.8 546.1,427.7 529.9,458.6 526.2,456.3 522.6,454 538.8,423.1 		
			"/>
		<polygon class="st1" points="617.5,501.4 617.5,506 617.5,510.7 585,510.7 552.4,510.7 552.4,506 552.4,501.4 585,501.4 		"/>
		<polygon class="st1" points="447.6,501.4 447.6,506 447.6,510.7 415.1,510.7 382.5,510.7 382.5,506 382.5,501.4 415.1,501.4 		"/>
		<polygon class="st1" points="470.2,553.5 473.8,555.8 477.5,558.1 461.2,589 444.9,620 441.3,617.6 437.6,615.3 453.9,584.4 		"/>
		<polygon class="st1" points="522.6,558.1 526.2,555.8 529.9,553.5 546.1,584.4 562.4,615.3 558.8,617.6 555.1,620 538.8,589 		"/>
		<polygon class="st1" points="437.6,396.8 441.3,394.4 444.9,392.1 461.2,423.1 477.5,454 473.8,456.3 470.2,458.6 453.9,427.7 		
			"/>
	</g>
	<polygon class="st1" points="670.9,561.4 674.8,563.2 678.7,565.1 661.2,595.3 643.8,625.6 639.9,623.8 636,621.9 653.4,591.6 	"/>
	<line class="st1" x1="438.4" y1="315.5" x2="473.3" y2="315.5"/>
	<polygon class="st1" points="532.6,678.7 533,683 533.3,687.3 498.4,687.3 463.4,687.3 463.1,683 462.7,678.7 497.7,678.7 	"/>
	<polygon class="st1" points="532.6,312.6 533,316.9 533.3,321.2 498.4,321.2 463.4,321.2 463.1,316.9 462.7,312.6 497.7,312.6 	"/>
	<polygon class="st1" points="349.7,366.8 353.5,368.8 357.3,370.8 338.8,400.4 320.2,430 316.4,428 312.5,426 331.1,396.4 	"/>
	<polygon class="st1" points="678.2,435 674.6,437.4 671,439.8 653.7,409.4 636.5,379.1 640,376.7 643.6,374.2 660.9,404.6 	"/>
	<polygon class="st1" points="359.1,622.2 355.5,624.5 351.8,626.8 335.7,595.8 319.7,564.7 323.4,562.5 327,560.2 343.1,591.2 	"/>
</g>
<g id="Background">
</g>
<g id="Emblem">
</g>
<g id="Text">
	<g>
		<text transform="matrix(1 0 0 1 823.1167 442.9335)" class="st2 st3 st4">Consumer</text>
	</g>
	<g>
		<text transform="matrix(1 0 0 1 78.6421 603.7363)" class="st5 st3 st4">Supply Operators</text>
	</g>
	<g>
		<text transform="matrix(1 0 0 1 653.6611 217.1045)" class="st6 st3 st4">Data Analytics</text>
	</g>
	<g>
		<text transform="matrix(1 0 0 1 239.4575 216.9741)" class="st7 st3 st4">Marketeers</text>
	</g>
	<g>
		<text transform="matrix(1 0 0 1 709.3989 764.25)" class="st8 st3 st4">Delivery Operators</text>
	</g>
	<g>
		<text transform="matrix(1 0 0 1 183.7446 780.2969)" class="st9 st3 st4">Service Operators</text>
	</g>
	<text transform="matrix(1 0 0 1 417.4775 685.7979)" class="st10 st11 st12">Lorem ipsum</text>
</g>
<g id="Graph" class="st10">
	<g class="st13">
		<defs>
			<polygon id="SVGID_1_" points="455.9,423.8 455.9,423.8 411.9,449.2 411.9,550.8 499.9,601.6 587.9,550.8 587.9,449.2 
				499.9,398.4 			"/>
		</defs>
		<clipPath id="SVGID_2_">
			<use xlink:href="#SVGID_1_"  style="overflow:visible;"/>
		</clipPath>
		<g class="st10">
			<g class="st14">
				<g>
					<g>
						<path class="st15" d="M500,500l-61.7-85C457,401.4,476.8,395,500,395V500z"/>
					</g>
				</g>
				<g>
					<g>
						<path class="st16" d="M500,500V395c58,0,105,47,105,105c0,58-47,105-105,105c-58,0-105-47-105-105c0-34.8,15.1-64.5,43.3-85
							L500,500z"/>
					</g>
				</g>
			</g>
			<g class="st14">
				<g>
				</g>
				<g>
				</g>
			</g>
		</g>
	</g>
	<g class="st13">
		<defs>
			<polygon id="SVGID_3_" points="251,423.8 251,423.8 207,449.2 207,550.8 295,601.6 383,550.8 383,449.2 295,398.4 			"/>
		</defs>
		<use xlink:href="#SVGID_3_"  style="overflow:visible;fill:#73973E;"/>
		<clipPath id="SVGID_4_">
			<use xlink:href="#SVGID_3_"  style="overflow:visible;"/>
		</clipPath>
		<g class="st10">
			<g class="st17">
				<g>
					<g>
						<path class="st18" d="M295.1,500l-61.7,85c-46.9-34.1-57.3-99.8-23.2-146.7c20.5-28.2,50.2-43.3,85-43.3V500z"/>
					</g>
				</g>
				<g>
					<g>
						<path class="st18" d="M295.1,500V395c58,0,105,47,105,105c0,58-47,105-105,105c-23.2,0-43-6.4-61.7-20.1L295.1,500z"/>
					</g>
				</g>
			</g>
			<g class="st17">
				<g>
				</g>
				<g>
				</g>
			</g>
		</g>
	</g>
	<g class="st13">
		<defs>
			<polygon id="SVGID_5_" points="353.4,605.1 353.4,605.1 309.5,630.5 309.5,732.1 397.4,782.9 485.4,732.1 485.4,630.5 
				397.4,579.7 			"/>
		</defs>
		<use xlink:href="#SVGID_5_"  style="overflow:visible;fill:#5EA0A8;"/>
		<clipPath id="SVGID_6_">
			<use xlink:href="#SVGID_5_"  style="overflow:visible;"/>
		</clipPath>
		<g class="st10">
			<g class="st19">
				<g>
					<g>
						<path class="st20" d="M397.6,681.3l85-61.7c34.1,46.9,23.7,112.6-23.2,146.7C412.4,800.4,346.7,790,312.6,743
							c-34.1-46.9-23.7-112.6,23.2-146.7c18.8-13.6,38.5-20.1,61.7-20.1V681.3z"/>
					</g>
				</g>
				<g>
					<g>
						<path class="st20" d="M397.6,681.3v-105c34.8,0,64.5,15.1,85,43.3L397.6,681.3z"/>
					</g>
				</g>
			</g>
			<g class="st19">
				<g>
				</g>
				<g>
				</g>
			</g>
		</g>
	</g>
	<g class="st13">
		<defs>
			<polygon id="SVGID_7_" points="558.3,605.1 558.3,605.1 514.3,630.5 514.3,732.1 602.3,782.9 690.3,732.1 690.3,630.5 
				602.3,579.7 			"/>
		</defs>
		<use xlink:href="#SVGID_7_"  style="overflow:visible;fill:#3179B2;"/>
		<clipPath id="SVGID_8_">
			<use xlink:href="#SVGID_7_"  style="overflow:visible;"/>
		</clipPath>
		<g class="st10">
			<g class="st21">
				<g>
					<g>
						<path class="st22" d="M602.4,681.3l-99.9-32.5c14.3-44.1,53.5-72.6,99.9-72.6V681.3z"/>
					</g>
				</g>
				<g>
					<g>
						<path class="st22" d="M602.4,681.3v-105c58,0,105,47,105,105c0,58-47,105-105,105c-58,0-105-47-105-105
							c0-11.6,1.6-21.4,5.1-32.5L602.4,681.3z"/>
					</g>
				</g>
			</g>
			<g class="st21">
				<g>
				</g>
				<g>
				</g>
			</g>
		</g>
	</g>
	<g class="st13">
		<defs>
			<polygon id="SVGID_9_" points="353.4,242.5 353.4,242.5 309.5,267.9 309.5,369.5 397.4,420.3 485.4,369.5 485.4,267.9 
				397.4,217.1 			"/>
		</defs>
		<use xlink:href="#SVGID_9_"  style="overflow:visible;fill:#FFD45C;"/>
		<clipPath id="SVGID_10_">
			<use xlink:href="#SVGID_9_"  style="overflow:visible;"/>
		</clipPath>
		<g class="st10">
			<g class="st23">
				<g>
					<g>
						<path class="st7" d="M397.6,318.7l-99.9,32.5c-17.9-55.2,12.3-114.4,67.4-132.4c11-3.6,20.9-5.1,32.5-5.1V318.7z"/>
					</g>
				</g>
				<g>
					<g>
						<path class="st7" d="M397.6,318.7v-105c58,0,105,47,105,105c0,58-47,105-105,105c-46.4,0-85.6-28.4-99.9-72.6L397.6,318.7z"/>
					</g>
				</g>
			</g>
			<g class="st23">
				<g>
				</g>
				<g>
				</g>
			</g>
		</g>
	</g>
	<g class="st13">
		<defs>
			<polygon id="SVGID_11_" points="660.8,423.8 660.8,423.8 616.8,449.2 616.8,550.8 704.8,601.6 792.7,550.8 792.7,449.2 
				704.8,398.4 			"/>
		</defs>
		<use xlink:href="#SVGID_11_"  style="overflow:visible;fill:#DE5051;"/>
		<clipPath id="SVGID_12_">
			<use xlink:href="#SVGID_11_"  style="overflow:visible;"/>
		</clipPath>
		<g class="st10">
			<g class="st24">
				<g>
					<g>
						<path class="st25" d="M704.9,500v105c-58,0-105-47-105-105c0-58,47-105,105-105l0,0V500z"/>
					</g>
				</g>
				<g>
					<g>
						<path class="st25" d="M704.9,500V395c58,0,105,47,105,105c0,58-47,105-105,105l0,0V500z"/>
					</g>
				</g>
			</g>
			<g class="st24">
				<g>
				</g>
				<g>
				</g>
			</g>
		</g>
	</g>
	<g class="st13">
		<defs>
			<polygon id="SVGID_13_" points="558.3,242.5 558.3,242.5 514.3,267.9 514.3,369.5 602.3,420.3 690.3,369.5 690.3,267.9 
				602.3,217.1 			"/>
		</defs>
		<use xlink:href="#SVGID_13_"  style="overflow:visible;fill:#EFAB4D;"/>
		<clipPath id="SVGID_14_">
			<use xlink:href="#SVGID_13_"  style="overflow:visible;"/>
		</clipPath>
		<g class="st10">
			<g class="st26">
				<g>
					<g>
						<path class="st27" d="M602.4,318.7h105c0,58-47,105-105,105c-58,0-105-47-105-105c0-58,47-105,105-105l0,0V318.7z"/>
					</g>
				</g>
				<g>
					<g>
						<path class="st27" d="M602.4,318.7v-105c58,0,105,47,105,105l0,0H602.4z"/>
					</g>
				</g>
			</g>
			<g class="st26">
				<g>
				</g>
				<g>
				</g>
			</g>
		</g>
	</g>
</g>
<g id="Big_rectangles" class="st10">
	<polygon class="st28" points="499.9,578.5 465.9,558.9 431.9,539.3 431.9,500 431.9,460.8 465.9,441.1 499.9,421.5 533.9,441.1 
		567.9,460.8 567.9,500 567.9,539.3 533.9,558.9 	"/>
	<polygon class="st29" points="533.9,441.1 499.9,421.5 499.9,578.5 533.9,558.9 567.9,539.3 567.9,500 567.9,460.8 	"/>
	<g class="st13">
		<polygon class="st30" points="295,578.5 261,558.9 227,539.3 227,500 227,460.8 261,441.1 295,421.5 329,441.1 363,460.8 363,500 
			363,539.3 329,558.9 		"/>
		<polygon class="st31" points="329,441.1 295,421.5 295,578.5 329,558.9 363,539.3 363,500 363,460.8 		"/>
	</g>
	<g class="st13">
		<polygon class="st30" points="397.4,759.8 363.4,740.2 329.5,720.6 329.5,681.3 329.5,642.1 363.4,622.4 397.4,602.8 431.4,622.4 
			465.4,642.1 465.4,681.3 465.4,720.6 431.4,740.2 		"/>
		<polygon class="st31" points="431.4,622.4 397.4,602.8 397.4,759.8 431.4,740.2 465.4,720.6 465.4,681.3 465.4,642.1 		"/>
	</g>
	<g class="st13">
		<polygon class="st30" points="602.3,759.8 568.3,740.2 534.3,720.6 534.3,681.3 534.3,642.1 568.3,622.4 602.3,602.8 636.3,622.4 
			670.3,642.1 670.3,681.3 670.3,720.6 636.3,740.2 		"/>
		<polygon class="st31" points="636.3,622.4 602.3,602.8 602.3,759.8 636.3,740.2 670.3,720.6 670.3,681.3 670.3,642.1 		"/>
	</g>
	<g class="st13">
		<polygon class="st30" points="397.4,397.2 363.4,377.6 329.5,358 329.5,318.7 329.5,279.4 363.4,259.8 397.4,240.2 431.4,259.8 
			465.4,279.4 465.4,318.7 465.4,358 431.4,377.6 		"/>
		<polygon class="st31" points="431.4,259.8 397.4,240.2 397.4,397.2 431.4,377.6 465.4,358 465.4,318.7 465.4,279.4 		"/>
	</g>
	<g class="st13">
		<polygon class="st30" points="704.8,578.5 670.8,558.9 636.8,539.3 636.8,500 636.8,460.8 670.8,441.1 704.8,421.5 738.7,441.1 
			772.7,460.8 772.7,500 772.7,539.3 738.7,558.9 		"/>
		<polygon class="st31" points="738.7,441.1 704.8,421.5 704.8,578.5 738.7,558.9 772.7,539.3 772.7,500 772.7,460.8 		"/>
	</g>
	<g class="st13">
		<polygon class="st30" points="602.3,397.2 568.3,377.6 534.3,358 534.3,318.7 534.3,279.4 568.3,259.8 602.3,240.2 636.3,259.8 
			670.3,279.4 670.3,318.7 670.3,358 636.3,377.6 		"/>
		<polygon class="st31" points="636.3,259.8 602.3,240.2 602.3,397.2 636.3,377.6 670.3,358 670.3,318.7 670.3,279.4 		"/>
	</g>
</g>
<g id="Icons">
	<g>
		<path class="st32" d="M437.2,347.7v4.7h-39.7v-27.9h8.6v23.1h8.3v-30.8h17.4v30.8H437.2z M397.4,314.6v5.6l0.6-0.7l23.6-28.8
			l5.9,4.9l2.6-17.5l-16.8,5.7l5.6,4.6L397.4,314.6z"/>
		<path class="st33" d="M372.2,325l-2.9-2.1l13.4-18l1.2-1.6l1.5,1.4l11.2,11.1l0.9-1.1v5.6l-0.7,0.8l-1.4-1.4l-11.1-11L372.2,325z
			 M397.4,324.6h-8.8v23.1h-8.3v-17.5h-17.4v17.5h-5.2v4.7h39.7V324.6z"/>
	</g>
	<g>
		<path class="st32" d="M627.9,706.7c-5.5-4.4-9.7-10.2-12.8-17.7c-0.3-0.7-0.7-1.2-1.2-1.7c-0.6,0.9-1.3,1.7-2.1,2.3
			c-1.7,1.3-3.2,2.6-4.6,3.8c3.6,8.3,8.6,15.1,15,20.3c1.9,1.6,4.8,1.3,6.3-0.7C630.2,711.1,629.9,708.3,627.9,706.7z M623.7,671.6
			c1.5-2,1.2-4.8-0.8-6.3c-1.1-0.8-10.6-8.1-17.8-9.8c-0.1,0-0.1,0-0.2,0c1.1,2.8,2.9,7.3,4.7,11.7c3.3,1.9,6.4,4.1,7.8,5.2h0
			C619.3,673.9,622.1,673.5,623.7,671.6z M612.4,681.5L612.4,681.5l-10.1-25v38.1c2.2-2.4,4.7-4.6,7.9-7
			C612,686.1,613.2,683.5,612.4,681.5z M637.7,677.9h-21.9c0.4,0.9,0.8,1.9,0.8,1.9c0.1,0.3,0.2,0.5,0.3,0.8h20.8V677.9z
			 M613.8,654.1h14.1v-1.8h-18.1C611.1,652.8,612.5,653.4,613.8,654.1z M620.4,689.8H633v-4.5h-14.8c0.5,0.6,0.8,1.3,1.1,2
			C619.7,688.2,620,689,620.4,689.8z M611.4,641.1v-1.8h-7.8c0.4,0.6,0.7,1.2,1,1.8H611.4z M625.3,697.7h14.6v-1.8h-16
			C624.4,696.5,624.8,697.1,625.3,697.7z M628.7,666.2c0.1,0.5,0.2,0.9,0.3,1.4c0,0.1,0,0.2,0,0.4h12.7v-1.8H628.7z M606.3,647h20.4
			v-2.7h-20.8C606.1,645.2,606.2,646.1,606.3,647z M633.5,706.9h5.3v-1.8h-6.3C632.9,705.7,633.2,706.3,633.5,706.9z"/>
		<path class="st33" d="M602.3,694.5c-4.4,5-7,11-9.1,22.8c-0.4,2.4-2.8,4.1-5.2,3.6c-2.4-0.4-4.1-2.8-3.6-5.2
			c2.7-15.4,6.7-22.9,13.9-29.8l-6.4-17.4c-2.4,1.5-4.9,2.5-7.6,3.1c-6.4,1.5-13.2,0.3-19.1-3.3c-2.1-1.3-2.8-4.1-1.5-6.2
			c1.3-2.1,4.1-2.8,6.2-1.5c6.3,3.9,13.4,3.3,19.1-1.1c-5.8-0.7-10.2-5.6-10.2-11.5c0-6.4,5.2-11.6,11.6-11.6
			c6.4,0,11.6,5.2,11.6,11.6c0,1.7-0.4,3.3-1,4.7l1.5,3.6V694.5z"/>
	</g>
	<g>
		<path class="st32" d="M637.8,317.1c0,2.7,1.5,6.8-0.7,6.8c0.9,0.9,1,1.8,1,3.2c0,1.4-1.9,2.1-1.9,3.7c0,1.6,2.1,3.1,0.7,6.3
			c-1.4,3.1-8.3,3.7-11.5,4.2c-6.3,1-6.4,8-5.2,10.6c1.3,2.9-0.2,4-1.4,5.2c-1.3,1.3-5.3,2.4-13.2,0.5c-0.6-0.1-1.2-0.3-1.9-0.5
			v-25.5c0.2,0,0.4,0.1,0.6,0.1c1.2,0,2.2-0.4,3.1-1.2c0.9-0.8,1.3-1.9,1.3-3.3c0-1.3-0.4-2.3-1.3-3.2c-0.9-0.9-1.9-1.3-3.2-1.3
			c-0.2,0-0.4,0-0.6,0.1v-2.8c0.1,0,0.2,0,0.3,0c2,0,3.2-1,3.6-3.1c0.2-1,0.4-1.7,0.5-2c0.1-0.4,0.3-0.8,0.5-1.2
			c0.2-0.4,0.5-0.8,0.9-1.3c0.4-0.5,1-1,1.6-1.6c2.5-2.2,4.2-3.8,5.1-4.7c0.9-0.9,1.8-2,2.5-3.3c0.7-1.3,1-2.8,1-4.5
			c0-2.2-0.6-4.2-1.8-6c-1.2-1.8-2.9-3.3-5.1-4.4c-2.2-1.1-4.8-1.6-7.7-1.6c-0.5,0-0.9,0-1.4,0.1v-17.1c0.4,0,0.8,0,1.3,0
			c17.5,0.7,25.2,7.6,29,14.9c3.1,5.9,3.2,10.1,4.5,13.4c1.3,3.3-1,4-1.5,5.5c-0.5,1.5,6.6,8.7,6.6,11
			C643.5,316.4,640.9,317.1,637.8,317.1z M606.5,305.1c1.3-1.1,2.2-2,2.8-2.5c0.6-0.6,1-1.2,1.4-1.9c0.4-0.7,0.6-1.5,0.6-2.3
			c0-1.6-0.6-3-1.8-4c-1.2-1.1-2.7-1.7-4.6-1.7c-0.5,0-0.9,0-1.4,0.1v15.1C604.3,307.1,605.3,306.2,606.5,305.1z"/>
		<path class="st33" d="M603.5,357.3c-6.3-1.5-17.1-3.8-24.1-2.4c1.6-2.5,1.6-3.5,3.7-11.5c3.7-14-12.8-26.7-11.4-50.3
			c0.7-11.7,14.8-23.7,31.8-23.6v17.1c-2.5,0.2-4.8,0.8-6.8,1.8c-2.3,1.3-4.1,2.9-5.3,4.9c-1.2,2-1.8,3.9-1.8,5.8
			c0,0.9,0.4,1.8,1.2,2.6c0.8,0.8,1.7,1.2,2.8,1.2c1.9,0,3.2-1.1,3.9-3.4c0.7-2.1,1.6-3.8,2.6-4.9c0.8-0.9,2-1.4,3.5-1.6v15.1
			c-0.2,0.2-0.4,0.4-0.5,0.5c-0.9,0.9-1.6,2-2.1,3.2c-0.5,1.2-0.8,2.7-0.8,4.4c0,1.3,0.4,2.4,1.1,3c0.6,0.6,1.4,0.9,2.3,1v2.8
			c-1,0.1-1.9,0.5-2.6,1.2c-0.9,0.9-1.3,1.9-1.3,3.2c0,1.4,0.5,2.5,1.4,3.3c0.7,0.6,1.6,1,2.5,1.1V357.3z"/>
	</g>
	<g>
		<path class="st34" d="M704.9,509.3v-5.7l15.8-5.2c0.9-0.3,1.4-1.3,1.1-2.2c-0.3-0.9-1.3-1.4-2.2-1.1l-14.7,4.8v-18.6
			c0-0.4-0.2-0.8-0.4-1.1c-0.3-0.4-0.8-0.6-1.3-0.6V511c0.5,0,1-0.2,1.3-0.6C704.7,510.1,704.9,509.7,704.9,509.3z M738.8,487.3
			c5.8-5.8,5.8-15.2,0-21.1c-5.8-5.8-15.2-5.8-21.1,0l7.5,7.5l-2,2c-5.3-3.9-11.7-6.3-18.7-6.6c-0.4,0-0.8-0.1-1.3-0.1v6.8
			c0.4,0,0.9,0,1.3,0.1c14.2,0.7,25.5,12.4,25.5,26.7c0,7.1-2.8,13.9-7.8,18.9c-4.8,4.8-11,7.5-17.6,7.8c-0.4,0-0.8,0.1-1.3,0.1v6.8
			c0.4,0,0.9,0,1.3,0c5.5-0.2,10.8-1.7,15.5-4.4c0.2,0.2,0.3,0.5,0.6,0.7l3.6,3.6c1.7,1.7,4.4,1.7,6,0c1.7-1.7,1.7-4.4,0-6l-3.4-3.3
			c0.1-0.1,0.1-0.1,0.2-0.2c6.3-6.3,9.8-14.8,9.8-23.7c0-8-2.8-15.3-7.4-21l1.9-1.9L738.8,487.3z"/>
		<path class="st35" d="M701.5,481.4v19.8l-2.6,0.9c-0.9,0.3-1.4,1.3-1.1,2.2c0.3,0.9,1.3,1.4,2.2,1.1l1.5-0.5v4.5
			c0,0.9,0.8,1.7,1.7,1.7v-31.3C702.2,479.7,701.5,480.4,701.5,481.4z M683.1,475.9l-2.1-2.1l-6,6l2,2c-4.6,5.7-7.4,13-7.4,20.9
			c0,9,3.5,17.4,9.8,23.7c0.3,0.3,0.7,0.6,1,0.9l-2.6,2.6c-1.7,1.7-1.7,4.4,0,6c1.7,1.7,4.4,1.7,6,0l3.6-3.6c0,0,0-0.1,0.1-0.1
			c4.8,2.5,10.1,3.9,15.7,3.9v-6.8c-7.1,0-13.9-2.8-18.9-7.8c-5.1-5.1-7.8-11.8-7.8-18.9c0-14.8,12-26.8,26.8-26.8v-6.8
			C695.6,469.1,688.7,471.6,683.1,475.9z M681,473.8L681,473.8l7.5-7.5c-5.8-5.8-15.2-5.8-21.1,0c-5.8,5.8-5.8,15.2,0,21.1l7.5-7.5
			l0,0L681,473.8z"/>
	</g>
	<g>
		<path class="st36" d="M295,506L295,506l0-28.9h10.5v-2.9c0-1.7-0.3-2.2-0.4-2.3c0-0.1-0.1-0.2-0.7-0.2H295V467h9.5
			c2.4,0,3.7,1.1,4.4,2.1c0.9,1.2,1.4,2.9,1.4,5.1v2.9h10.1v0l9,0c3.1,0,5.6,2.5,5.6,5.6l0,3.3L295,506z M295,513.2v14.1h23.3l0,3.3
			h7.7v-3.3h3.4c3.1,0,5.6-2.5,5.6-5.6v-28.6l-38.5,19.3L295,513.2z"/>
		<path class="st37" d="M295,506l-39.9-20l0-3.3c0-3.1,2.5-5.6,5.6-5.6h0H271v0h8.7v-2.9c0-6.5,4-7.2,5.8-7.2h9.5v4.7h-9.5
			c-0.5,0-1.1,0-1.1,2.5v2.9H295V506z M295,513.2l-1.4-0.7l-38.5-19.3v28.6c0,3.1,2.5,5.5,5.6,5.6h3.4v3.3h7.7v-3.3H295V513.2z"/>
	</g>
	<g>
		<path class="st36" d="M405.7,682.9l5.4,0.1l-0.2,9.1l-5.4-0.1c-0.7,3.3-2,6.3-3.9,9l3.8,3.9l-6.6,6.3l-3.7-3.9c0,0,0,0,0,0v-7.4
			c3.2-3.2,5.2-7.6,5.3-12.5c0.1-5.1-1.9-9.8-5.3-13.3v-7.4c0.3,0.2,0.5,0.3,0.8,0.5l3.9-3.7l6.3,6.6l-3.9,3.7
			C403.9,676.5,405.1,679.6,405.7,682.9z M442.3,658.4l-0.1,6.2l-3.7-0.1c-0.5,2.2-1.4,4.3-2.7,6.1l2.5,2.6l-4.5,4.3l-2.5-2.6
			c-1.8,1.2-3.9,2-6.2,2.4l-0.1,3.7l-6.2-0.1l0.1-3.7c-2.2-0.5-4.3-1.4-6.1-2.7l-2.6,2.5l-4.3-4.5l2.6-2.6c-1.2-1.8-2-3.9-2.4-6.2
			l-3.7-0.1l0.1-6.2l3.7,0.1c0.5-2.2,1.4-4.3,2.7-6.1l-2.5-2.6l4.5-4.3l2.6,2.6c1.8-1.2,3.9-2,6.2-2.4l0.1-3.7l6.2,0.1l-0.1,3.7
			c2.2,0.5,4.3,1.4,6.1,2.7l2.7-2.5l4.3,4.5l-2.6,2.5c1.2,1.8,2,3.9,2.4,6.2L442.3,658.4z M435,661.4c0.1-6.9-5.4-12.6-12.3-12.8
			c-6.9-0.1-12.6,5.4-12.8,12.3c-0.1,6.9,5.4,12.6,12.3,12.8C429.1,673.8,434.8,668.3,435,661.4z"/>
		<path class="st37" d="M395,707.3c-2.7,1.8-5.8,3-9.1,3.6l-0.1,5.4l-9.1-0.2l0.1-5.4c-3.3-0.7-6.3-2-8.9-3.9l-3.9,3.8l-6.3-6.6
			l3.9-3.7c-1.8-2.7-3-5.8-3.6-9.1l-5.4-0.1l0.2-9.1l5.4,0.1c0.7-3.3,2-6.3,3.9-9l-3.8-3.9l6.6-6.3l3.7,3.9c2.7-1.8,5.8-3,9.1-3.6
			l0.1-5.4l9.1,0.2l-0.1,5.4c3,0.6,5.7,1.8,8.2,3.4v7.4c-3.3-3.3-7.8-5.5-12.8-5.5c-10.2-0.2-18.6,7.9-18.8,18.1
			c-0.2,10.2,7.9,18.6,18.1,18.8c5.3,0.1,10.1-2.1,13.5-5.6V707.3z"/>
	</g>
</g>
<g id="Laag_8">
	<g>
		<g>
			<defs>
				<rect id="SVGID_15_" x="408.1" y="405.3" width="192.2" height="192.2"/>
			</defs>
			<clipPath id="SVGID_16_">
				<use xlink:href="#SVGID_15_"  style="overflow:visible;"/>
			</clipPath>
			<g class="st38">
				<defs>
					<polygon id="SVGID_17_" points="530,494.9 530,494.9 530,494.9 					"/>
				</defs>
				<clipPath id="SVGID_18_">
					<use xlink:href="#SVGID_17_"  style="overflow:visible;"/>
				</clipPath>
				
					<linearGradient id="SVGID_19_" gradientUnits="userSpaceOnUse" x1="529.9545" y1="494.9007" x2="529.9552" y2="494.9007" gradientTransform="matrix(2.482100e-03 0 0 -2.482100e-03 190.1835 -160.2001)">
					<stop  offset="0" style="stop-color:#A1D8F6"/>
					<stop  offset="5.072498e-02" style="stop-color:#91D1F3"/>
					<stop  offset="0.1823" style="stop-color:#6CC1EB"/>
					<stop  offset="0.3204" style="stop-color:#4DB3E4"/>
					<stop  offset="0.4648" style="stop-color:#36A9DF"/>
					<stop  offset="0.6182" style="stop-color:#25A2DC"/>
					<stop  offset="0.7869" style="stop-color:#1B9DDA"/>
					<stop  offset="1" style="stop-color:#189CD9"/>
				</linearGradient>
				<rect x="530" y="494.9" class="st39" width="0" height="0"/>
			</g>
			<g class="st38">
				<defs>
					<path id="SVGID_20_" d="M526,429.5h-58c1.7,3.1,3.1,6.8,4,10.8h54c5.4,0,10.3,1,15,3l0,0c4.8,2,8.8,4.8,12.4,8.3
						c3.5,3.5,6.3,7.6,8.4,12.4c2,4.7,3.1,9.7,3.1,15.2c0,4.6-0.7,8.7-2.1,12.5c-1.4,3.9-3.4,7.3-5.9,10.3l-3.3,4l3.8,3.5
						c4.4,4.1,7.9,8.8,10.5,14.5c2.6,5.6,3.8,11.4,3.8,17.6c0,5.6-1.1,10.7-3.2,15.6v0c-2.2,5-5,9.4-8.7,13.1
						c-3.6,3.7-7.8,6.7-12.7,8.9c-4.8,2.2-9.7,3.2-15,3.2h-73.6v-96.2c-1.9,0.9-3.9,1.5-6,1.5c-1.7,0-3.3-0.4-4.9-1v96.7
						c0,2.4,0.8,5.4,3.1,7.4l0,0l0,0c2,1.7,4.6,2.4,6.9,2.4h74.5c6.8,0,13.4-1.4,19.5-4.2l0,0c6.1-2.7,11.4-6.5,16-11.2l0,0
						c4.5-4.7,8.2-10.2,10.8-16.4c2.7-6.3,4.1-13,4-19.9c0-7.7-1.6-15.2-4.8-22.2v0c-2.5-5.4-5.7-10.2-9.6-14.4c2-3,3.6-6.1,4.8-9.5
						l0,0l0,0c1.8-5.1,2.7-10.5,2.7-16.2c0-6.9-1.3-13.4-3.9-19.5l0,0c-2.6-6-6.2-11.3-10.7-15.8c-4.5-4.5-9.8-8.1-15.8-10.6h0
						C539.2,430.8,532.7,429.5,526,429.5C526,429.5,526,429.5,526,429.5"/>
				</defs>
				<clipPath id="SVGID_21_">
					<use xlink:href="#SVGID_20_"  style="overflow:visible;"/>
				</clipPath>
				
					<linearGradient id="SVGID_22_" gradientUnits="userSpaceOnUse" x1="1.8275" y1="-3.0569" x2="2.4682" y2="-3.0569" gradientTransform="matrix(211.2729 0 0 -211.2729 61.2261 -134.4007)">
					<stop  offset="0" style="stop-color:#A1D8F6"/>
					<stop  offset="5.072498e-02" style="stop-color:#91D1F3"/>
					<stop  offset="0.1823" style="stop-color:#6CC1EB"/>
					<stop  offset="0.3204" style="stop-color:#4DB3E4"/>
					<stop  offset="0.4648" style="stop-color:#36A9DF"/>
					<stop  offset="0.6182" style="stop-color:#25A2DC"/>
					<stop  offset="0.7869" style="stop-color:#1B9DDA"/>
					<stop  offset="1" style="stop-color:#189CD9"/>
				</linearGradient>
				<rect x="447.6" y="429.5" class="st40" width="134.8" height="163.9"/>
			</g>
			<g class="st38">
				<defs>
					<path id="SVGID_23_" d="M578.4,561.6L578.4,561.6L578.4,561.6z"/>
				</defs>
				<clipPath id="SVGID_24_">
					<use xlink:href="#SVGID_23_"  style="overflow:visible;"/>
				</clipPath>
				
					<linearGradient id="SVGID_25_" gradientUnits="userSpaceOnUse" x1="578.361" y1="561.5872" x2="578.361" y2="561.5872" gradientTransform="matrix(1.000000e-03 0 0 -1.000000e-03 265.7381 -56.1148)">
					<stop  offset="0" style="stop-color:#A1D8F6"/>
					<stop  offset="5.072498e-02" style="stop-color:#91D1F3"/>
					<stop  offset="0.1823" style="stop-color:#6CC1EB"/>
					<stop  offset="0.3204" style="stop-color:#4DB3E4"/>
					<stop  offset="0.4648" style="stop-color:#36A9DF"/>
					<stop  offset="0.6182" style="stop-color:#25A2DC"/>
					<stop  offset="0.7869" style="stop-color:#1B9DDA"/>
					<stop  offset="1" style="stop-color:#189CD9"/>
				</linearGradient>
				<polygon class="st41" points="578.4,561.6 578.4,561.6 578.4,561.6 				"/>
			</g>
			<g class="st38">
				<defs>
					<path id="SVGID_26_" d="M498.3,470.7H515c1.6,0,3,0.3,4.3,0.8c1.3,0.5,2.3,1.2,3.2,2.1c0.9,0.9,1.5,1.9,2,3
						c0.5,1.1,0.7,2.3,0.7,3.7c0,1.6-0.3,2.8-0.7,3.9l5,2.2l-5-2.2c-0.5,1.2-1.2,2.2-2.1,3l0,0c-0.8,0.8-1.8,1.4-3.1,1.9
						c-1.3,0.5-2.8,0.7-4.6,0.8h-16.4V470.7z M515,459.9h-27.5v40.7h27.2c2.9,0,5.7-0.5,8.3-1.4l0,0c2.6-0.9,5-2.4,6.9-4.3
						c1.9-1.8,3.4-4,4.4-6.5l0,0c0,0,0,0,0,0c0,0,0,0,0,0c1.1-2.6,1.6-5.3,1.6-8.2c0-2.7-0.5-5.4-1.6-7.9l0,0l0,0
						c-1-2.4-2.5-4.6-4.4-6.5l0,0l0,0c-1.9-1.9-4.2-3.4-6.7-4.4l0,0l0,0C520.8,460.4,517.9,459.9,515,459.9
						C515,459.9,515,459.9,515,459.9"/>
				</defs>
				<clipPath id="SVGID_27_">
					<use xlink:href="#SVGID_26_"  style="overflow:visible;"/>
				</clipPath>
				
					<linearGradient id="SVGID_28_" gradientUnits="userSpaceOnUse" x1="4.78" y1="-8.7192" x2="5.4207" y2="-8.7192" gradientTransform="matrix(76.0753 0 0 -76.0753 123.7571 -183.0571)">
					<stop  offset="0" style="stop-color:#A1D8F6"/>
					<stop  offset="5.072498e-02" style="stop-color:#91D1F3"/>
					<stop  offset="0.1823" style="stop-color:#6CC1EB"/>
					<stop  offset="0.3204" style="stop-color:#4DB3E4"/>
					<stop  offset="0.4648" style="stop-color:#36A9DF"/>
					<stop  offset="0.6182" style="stop-color:#25A2DC"/>
					<stop  offset="0.7869" style="stop-color:#1B9DDA"/>
					<stop  offset="1" style="stop-color:#189CD9"/>
				</linearGradient>
				<rect x="487.5" y="459.9" class="st42" width="48.5" height="40.7"/>
			</g>
			<g class="st38">
				<defs>
					<path id="SVGID_29_" d="M528.9,560.7C528.9,560.7,528.9,560.7,528.9,560.7L528.9,560.7z M528.9,560.7L528.9,560.7
						C528.9,560.7,528.9,560.7,528.9,560.7 M528.9,560.7C528.9,560.7,528.9,560.7,528.9,560.7L528.9,560.7L528.9,560.7z
						 M528.9,560.7L528.9,560.7C528.9,560.7,528.9,560.7,528.9,560.7 M528.9,560.7C528.9,560.7,528.9,560.7,528.9,560.7L528.9,560.7
						z"/>
				</defs>
				<clipPath id="SVGID_30_">
					<use xlink:href="#SVGID_29_"  style="overflow:visible;"/>
				</clipPath>
				
					<linearGradient id="SVGID_31_" gradientUnits="userSpaceOnUse" x1="21096.7656" y1="-38316.0117" x2="21097.4063" y2="-38316.0117" gradientTransform="matrix(1.613370e-02 0 0 -1.613370e-02 188.5188 -57.4433)">
					<stop  offset="0" style="stop-color:#A1D8F6"/>
					<stop  offset="5.072498e-02" style="stop-color:#91D1F3"/>
					<stop  offset="0.1823" style="stop-color:#6CC1EB"/>
					<stop  offset="0.3204" style="stop-color:#4DB3E4"/>
					<stop  offset="0.4648" style="stop-color:#36A9DF"/>
					<stop  offset="0.6182" style="stop-color:#25A2DC"/>
					<stop  offset="0.7869" style="stop-color:#1B9DDA"/>
					<stop  offset="1" style="stop-color:#189CD9"/>
				</linearGradient>
				<rect x="528.9" y="560.7" class="st43" width="0" height="0"/>
			</g>
			<g class="st38">
				<defs>
					<path id="SVGID_32_" d="M498.3,528.3h21.9c1.4,0,2.6,0.3,3.8,0.9c1.4,0.7,2.5,1.6,3.5,2.7c1,1.1,1.8,2.4,2.3,3.9
						c0.6,1.5,0.8,2.9,0.8,4.2c0,1.5-0.3,3-0.8,4.5c-0.6,1.5-1.3,2.7-2.3,3.8c-1,1.1-2.1,2-3.4,2.6l0,0l0,0
						c-1.2,0.6-2.4,0.9-3.9,0.9h-21.9V528.3z M520.2,517.5h-32.7v45.2h32.7c3,0,6-0.7,8.7-2c2.5-1.3,4.8-3,6.7-5.1
						c1.9-2.1,3.4-4.5,4.4-7.2c1-2.7,1.5-5.5,1.5-8.3c0-2.8-0.5-5.5-1.5-8.1c-1-2.6-2.5-5-4.3-7.1l0,0c-1.9-2.1-4.1-3.9-6.6-5.2l0,0
						C526.3,518.2,523.3,517.5,520.2,517.5C520.2,517.5,520.2,517.5,520.2,517.5"/>
				</defs>
				<clipPath id="SVGID_33_">
					<use xlink:href="#SVGID_32_"  style="overflow:visible;"/>
				</clipPath>
				
					<linearGradient id="SVGID_34_" gradientUnits="userSpaceOnUse" x1="4.2966" y1="-7.4406" x2="4.9373" y2="-7.4406" gradientTransform="matrix(84.636 0 0 -84.636 123.7392 -89.6087)">
					<stop  offset="0" style="stop-color:#A1D8F6"/>
					<stop  offset="5.072498e-02" style="stop-color:#91D1F3"/>
					<stop  offset="0.1823" style="stop-color:#6CC1EB"/>
					<stop  offset="0.3204" style="stop-color:#4DB3E4"/>
					<stop  offset="0.4648" style="stop-color:#36A9DF"/>
					<stop  offset="0.6182" style="stop-color:#25A2DC"/>
					<stop  offset="0.7869" style="stop-color:#1B9DDA"/>
					<stop  offset="1" style="stop-color:#189CD9"/>
				</linearGradient>
				<rect x="487.5" y="517.5" class="st44" width="54" height="45.2"/>
			</g>
			<g class="st38">
				<defs>
					<path id="SVGID_35_" d="M444.8,413.7v41.9c0,1.5-1.2,2.7-2.7,2.7c-1.5,0-2.7-1.2-2.7-2.7v-35.9c-4.9,7.3-8.1,18.5-8.1,30.9
						c0,16.8,5.7,31.2,13.9,37.1l0.1,15.4l-0.1,64v26.5l0,0v0h7.7c0.2,0.1,0.5,0.1,0.7,0h7.5v-15.2v-17.5l0-25.8v-0.2v-16.9l0-14.9
						l0.1-15c8.4-5.7,14.4-20.3,14.4-37.4c0-12.5-3.2-23.6-8.1-30.9v35.9c0,1.5-1.2,2.7-2.7,2.7c-1.5,0-2.7-1.2-2.7-2.7v-41.9
						c-1.8-1.4-3.7-2.3-5.8-2.8v44.7c0,1.5-1.2,2.7-2.7,2.7c-1.5,0-2.7-1.2-2.7-2.7v-44.7C448.8,411.2,446.7,412.2,444.8,413.7"/>
				</defs>
				<clipPath id="SVGID_36_">
					<use xlink:href="#SVGID_35_"  style="overflow:visible;"/>
				</clipPath>
				
					<linearGradient id="SVGID_37_" gradientUnits="userSpaceOnUse" x1="5.715" y1="-9.4171" x2="6.3556" y2="-9.4171" gradientTransform="matrix(69.1364 0 0 -69.1364 36.1661 -148.9463)">
					<stop  offset="0" style="stop-color:#FFE447"/>
					<stop  offset="7.900840e-02" style="stop-color:#FEDD3B"/>
					<stop  offset="0.2738" style="stop-color:#FDD024"/>
					<stop  offset="0.482" style="stop-color:#FDC713"/>
					<stop  offset="0.7108" style="stop-color:#FCC209"/>
					<stop  offset="1" style="stop-color:#FCC006"/>
				</linearGradient>
				<rect x="431.3" y="410.8" class="st45" width="44.3" height="182.7"/>
			</g>
		</g>
	</g>
</g>
</svg>
