<?xml version="1.0" encoding="utf-8"?>
<!-- Generator: Adobe Illustrator 22.1.0, SVG Export Plug-In . SVG Version: 6.00 Build 0)  -->
<svg version="1.1" xmlns="http://www.w3.org/2000/svg" xmlns:xlink="http://www.w3.org/1999/xlink" x="0px" y="0px"
	 viewBox="0 0 1800 1200" style="enable-background:new 0 0 1800 1200;" xml:space="preserve">
<style type="text/css">
	.st0{fill:#F7F9F9;}
	.st1{fill:#455560;}
	.st2{font-family:'Lato-Medium';}
	.st3{font-size:30.3698px;}
	.st4{font-family:'Lato-Heavy';}
	.st5{font-size:48.0687px;}
	.st6{fill:none;}
	.st7{fill:#8C9393;}
	.st8{font-family:'TwCenMT-Regular';}
	.st9{font-size:12.0172px;}
	.st10{fill:none;stroke:#F2D041;stroke-width:5;stroke-linecap:round;stroke-linejoin:round;}
	.st11{fill:none;stroke:#F2756B;stroke-width:5;stroke-linecap:round;stroke-linejoin:round;}
	.st12{fill:none;stroke:#F4B545;stroke-width:5;stroke-linecap:round;stroke-linejoin:round;}
	.st13{fill:none;stroke:#76AEDD;stroke-width:5;stroke-linecap:round;stroke-linejoin:round;}
	.st14{fill:none;stroke:#75E0DB;stroke-width:5;stroke-linecap:round;stroke-linejoin:round;}
	.st15{fill:#75E0DB;}
	.st16{fill:#EAEFEF;}
	.st17{fill:url(#SVGID_1_);}
	.st18{fill:#F2756B;}
	.st19{fill:none;stroke:#F2756B;stroke-width:5;}
	.st20{fill:#444444;}
	.st21{fill:url(#SVGID_2_);}
	.st22{fill:#F4B545;}
	.st23{fill:none;stroke:#F4B545;stroke-width:5;}
	.st24{fill:url(#SVGID_3_);}
	.st25{fill:#F2D041;}
	.st26{fill:none;stroke:#F2D041;stroke-width:5;}
	.st27{fill:url(#SVGID_4_);}
	.st28{fill:#1E1D1D;}
	.st29{fill:#76AEDD;}
</style>
<g id="Background">
	<rect class="st0" width="1800" height="1200"/>
</g>
<g id="Emblem">
</g>
<g id="Text">
	<g>
		<g>
			<text transform="matrix(1 0 0 1 190.8975 186.334)" class="st1 st2 st3">Infographic</text>
			<text transform="matrix(1 0 0 1 250.2979 148.0049)" class="st1 st4 st5">X</text>
			<rect x="118.7" y="203.6" class="st6" width="290.4" height="81.7"/>
			<text transform="matrix(1 0 0 1 129.9741 211.1934)"><tspan x="0" y="0" class="st7 st8 st9">Lorem ipsum dolor sit amet, consectetur adipiscing elit, sed </tspan><tspan x="-1.4" y="14.4" class="st7 st8 st9">do eiusmod tempor incididunt ut labore et dolore magna </tspan><tspan x="-4.8" y="28.8" class="st7 st8 st9">aliqua. Ut enim ad minim veniam, quis nostrud exercitation </tspan><tspan x="-1.7" y="43.3" class="st7 st8 st9">ullamco laboris nisi ut aliquip ex ea commodo consequat. </tspan><tspan x="43.8" y="57.7" class="st7 st8 st9">Duis aute irure dolor in reprehenderit.</tspan></text>
		</g>
		<line class="st10" x1="189.4" y1="157.3" x2="313.1" y2="157.3"/>
		<line class="st10" x1="327.6" y1="157.3" x2="341.1" y2="157.3"/>
	</g>
	<g>
		<g>
			<text transform="matrix(1 0 0 1 186.8965 587.1953)" class="st1 st2 st3">Infographic</text>
			<text transform="matrix(1 0 0 1 246.7295 548.8662)" class="st1 st4 st5">Z</text>
			<rect x="114.7" y="604.4" class="st6" width="290.4" height="81.7"/>
			<text transform="matrix(1 0 0 1 125.9731 612.0547)"><tspan x="0" y="0" class="st7 st8 st9">Lorem ipsum dolor sit amet, consectetur adipiscing elit, sed </tspan><tspan x="-1.4" y="14.4" class="st7 st8 st9">do eiusmod tempor incididunt ut labore et dolore magna </tspan><tspan x="-4.8" y="28.8" class="st7 st8 st9">aliqua. Ut enim ad minim veniam, quis nostrud exercitation </tspan><tspan x="-1.7" y="43.3" class="st7 st8 st9">ullamco laboris nisi ut aliquip ex ea commodo consequat. </tspan><tspan x="43.8" y="57.7" class="st7 st8 st9">Duis aute irure dolor in reprehenderit.</tspan></text>
		</g>
		<line class="st11" x1="185.4" y1="558.1" x2="309.1" y2="558.1"/>
		<line class="st11" x1="323.6" y1="558.1" x2="337.1" y2="558.1"/>
	</g>
	<g>
		<g>
			<text transform="matrix(1 0 0 1 1456.8535 388.3291)" class="st1 st2 st3">Infographic</text>
			<text transform="matrix(1 0 0 1 1516.9751 350)" class="st1 st4 st5">Y</text>
			<rect x="1384.7" y="405.6" class="st6" width="290.4" height="81.7"/>
			<text transform="matrix(1 0 0 1 1395.9302 413.1885)"><tspan x="0" y="0" class="st7 st8 st9">Lorem ipsum dolor sit amet, consectetur adipiscing elit, sed </tspan><tspan x="-1.4" y="14.4" class="st7 st8 st9">do eiusmod tempor incididunt ut labore et dolore magna </tspan><tspan x="-4.8" y="28.8" class="st7 st8 st9">aliqua. Ut enim ad minim veniam, quis nostrud exercitation </tspan><tspan x="-1.7" y="43.3" class="st7 st8 st9">ullamco laboris nisi ut aliquip ex ea commodo consequat. </tspan><tspan x="43.8" y="57.7" class="st7 st8 st9">Duis aute irure dolor in reprehenderit.</tspan></text>
		</g>
		<line class="st12" x1="1455.3" y1="359.3" x2="1579.1" y2="359.3"/>
		<line class="st12" x1="1593.6" y1="359.3" x2="1607.1" y2="359.3"/>
	</g>
	<g>
		<g>
			<text transform="matrix(1 0 0 1 251.1895 992.1025)" class="st1 st2 st3">Infographic</text>
			<text transform="matrix(1 0 0 1 303.9805 953.7734)" class="st1 st4 st5">W</text>
			<rect x="179" y="1009.3" class="st6" width="290.4" height="81.7"/>
			<text transform="matrix(1 0 0 1 190.2661 1016.9619)"><tspan x="0" y="0" class="st7 st8 st9">Lorem ipsum dolor sit amet, consectetur adipiscing elit, sed </tspan><tspan x="-1.4" y="14.4" class="st7 st8 st9">do eiusmod tempor incididunt ut labore et dolore magna </tspan><tspan x="-4.8" y="28.8" class="st7 st8 st9">aliqua. Ut enim ad minim veniam, quis nostrud exercitation </tspan><tspan x="-1.7" y="43.3" class="st7 st8 st9">ullamco laboris nisi ut aliquip ex ea commodo consequat. </tspan><tspan x="43.8" y="57.7" class="st7 st8 st9">Duis aute irure dolor in reprehenderit.</tspan></text>
		</g>
		<line class="st13" x1="249.7" y1="963" x2="373.4" y2="963"/>
		<line class="st13" x1="387.9" y1="963" x2="401.4" y2="963"/>
	</g>
	<g>
		<g>
			<text transform="matrix(1 0 0 1 1456.752 784.0576)" class="st1 st2 st3">Infographic</text>
			<text transform="matrix(1 0 0 1 1514.3262 745.7285)" class="st1 st4 st5">U</text>
			<rect x="1384.6" y="801.3" class="st6" width="290.4" height="81.7"/>
			<text transform="matrix(1 0 0 1 1395.8286 808.917)"><tspan x="0" y="0" class="st7 st8 st9">Lorem ipsum dolor sit amet, consectetur adipiscing elit, sed </tspan><tspan x="-1.4" y="14.4" class="st7 st8 st9">do eiusmod tempor incididunt ut labore et dolore magna </tspan><tspan x="-4.8" y="28.8" class="st7 st8 st9">aliqua. Ut enim ad minim veniam, quis nostrud exercitation </tspan><tspan x="-1.7" y="43.3" class="st7 st8 st9">ullamco laboris nisi ut aliquip ex ea commodo consequat. </tspan><tspan x="43.8" y="57.7" class="st7 st8 st9">Duis aute irure dolor in reprehenderit.</tspan></text>
		</g>
		<line class="st14" x1="1455.2" y1="755" x2="1579" y2="755"/>
		<line class="st14" x1="1593.5" y1="755" x2="1607" y2="755"/>
	</g>
</g>
<g id="Shapes">
	<g id="W">
		<g id="Lines_4_">
		</g>
		<g id="Body_8_">
			<g id="Dark_shape_4_">
			</g>
			<g id="Shadow_4_">
			</g>
			<g id="Body_4_">
			</g>
		</g>
	</g>
	<g id="U">
		<g id="Lines_3_">
			<g>
				<path class="st14" d="M697.2,724.4c-6.9,0.7-13.5,2.3-19.7,4.6"/>
				<line class="st14" x1="730.3" y1="724" x2="715.7" y2="724"/>
				<path class="st14" d="M697.2,879.6c-6.9-0.7-13.5-2.3-19.7-4.6"/>
				<line class="st14" x1="730.3" y1="880" x2="715.7" y2="880"/>
				<path class="st14" d="M654.3,742.7C637.6,757.1,627,778.3,627,802c0,23.7,10.6,44.9,27.3,59.3"/>
				<path class="st15" d="M661.5,742.7c0,3.9-3.2,7.1-7.1,7.1c-3.9,0-7.1-3.2-7.1-7.1c0-3.9,3.2-7.1,7.1-7.1
					C658.3,735.6,661.5,738.8,661.5,742.7z"/>
				<circle class="st15" cx="654.3" cy="861.3" r="7.1"/>
			</g>
			<g>
				<path class="st14" d="M1102.8,724.4c6.9,0.7,13.5,2.3,19.7,4.6"/>
				<line class="st14" x1="1069.7" y1="724" x2="1084.3" y2="724"/>
				<path class="st14" d="M1102.8,879.6c6.9-0.7,13.5-2.3,19.7-4.6"/>
				<line class="st14" x1="1069.7" y1="880" x2="1084.3" y2="880"/>
				<path class="st14" d="M1145.7,742.7c16.7,14.3,27.3,35.6,27.3,59.3c0,23.7-10.6,44.9-27.3,59.3"/>
				<circle class="st15" cx="1145.7" cy="742.7" r="7.1"/>
				
					<ellipse transform="matrix(0.9995 -3.291599e-02 3.291599e-02 0.9995 -27.7282 38.1777)" class="st15" cx="1145.7" cy="861.3" rx="7.1" ry="7.1"/>
			</g>
		</g>
		<g id="Body_7_">
			<g id="Dark_shape_3_">
				<path class="st16" d="M647,802c0,32,26,58,58,58h390c32,0,58-26,58-58s-26-58-58-58H705C673,744,647,770,647,802z"/>
			</g>
			<g id="Shadow_3_">
				<image style="overflow:visible;" width="502" height="113" xlink:href="A81780CD.png"  transform="matrix(1 0 0 1 658 755)">
				</image>
			</g>
			<g id="Body_3_">
				<linearGradient id="SVGID_1_" gradientUnits="userSpaceOnUse" x1="900" y1="857.6426" x2="900" y2="746.348">
					<stop  offset="0" style="stop-color:#DAE5E5"/>
					<stop  offset="0.5494" style="stop-color:#F1F5F5"/>
					<stop  offset="1" style="stop-color:#FFFFFF"/>
				</linearGradient>
				<path class="st17" d="M1143,802c0-26.5-21.5-48-48-48l0,0H705l0,0l0,0c-26.5,0-48,21.5-48,48s21.5,48,48,48l0,0l0,0h390l0,0
					C1121.5,850,1143,828.5,1143,802z"/>
			</g>
		</g>
	</g>
	<g id="Z">
		<g id="Lines_2_">
			<g>
				<path class="st11" d="M697.2,522.4c-6.9,0.7-13.5,2.3-19.7,4.6"/>
				<line class="st11" x1="730.3" y1="522" x2="715.7" y2="522"/>
				<path class="st11" d="M697.2,677.6c-6.9-0.7-13.5-2.3-19.7-4.6"/>
				<line class="st11" x1="730.3" y1="678" x2="715.7" y2="678"/>
				<path class="st11" d="M654.3,540.7C637.6,555.1,627,576.3,627,600c0,23.7,10.6,44.9,27.3,59.3"/>
				<path class="st18" d="M661.5,540.7c0,3.9-3.2,7.1-7.1,7.1c-3.9,0-7.1-3.2-7.1-7.1c0-3.9,3.2-7.1,7.1-7.1
					C658.3,533.6,661.5,536.8,661.5,540.7z"/>
				<circle class="st18" cx="654.3" cy="659.3" r="7.1"/>
			</g>
			<g>
				<path class="st11" d="M1102.8,522.4c6.9,0.7,13.5,2.3,19.7,4.6"/>
				<line class="st11" x1="1069.7" y1="522" x2="1084.3" y2="522"/>
				<path class="st11" d="M1102.8,677.6c6.9-0.7,13.5-2.3,19.7-4.6"/>
				<line class="st11" x1="1069.7" y1="678" x2="1084.3" y2="678"/>
				<path class="st11" d="M1145.7,540.7c16.7,14.3,27.3,35.6,27.3,59.3c0,23.7-10.6,44.9-27.3,59.3"/>
				<path class="st18" d="M1138.5,540.7c0,3.9,3.2,7.1,7.1,7.1s7.1-3.2,7.1-7.1c0-3.9-3.2-7.1-7.1-7.1S1138.5,536.8,1138.5,540.7z"
					/>
				<circle class="st18" cx="1145.7" cy="659.3" r="7.1"/>
			</g>
			<g>
				<path class="st19" d="M581.4,802c0-8.6,7-15.6,15.6-15.6s15.6,7,15.6,15.6c0,8.6-7,15.6-15.6,15.6S581.4,810.6,581.4,802z"/>
				<path class="st20" d="M589.9,802c0-3.9,3.2-7.1,7.1-7.1s7.1,3.2,7.1,7.1c0,3.9-3.2,7.1-7.1,7.1S589.9,805.9,589.9,802z"/>
				<g>
					<path class="st19" d="M581.4,802H567c-5.5,0-10-4.5-10-10V610c0-5.5,4.5-10,10-10h60"/>
				</g>
			</g>
		</g>
		<g id="Body_6_">
			<g id="Dark_shape_2_">
				<path class="st16" d="M647,600c0,32,26,58,58,58h390c32,0,58-26,58-58s-26-58-58-58H705C673,542,647,568,647,600z"/>
			</g>
			<g id="Shadow_2_">
				<image style="overflow:visible;" width="502" height="113" xlink:href="A81780CF.png"  transform="matrix(1 0 0 1 658 553)">
				</image>
			</g>
			<g id="Body_2_">
				<linearGradient id="SVGID_2_" gradientUnits="userSpaceOnUse" x1="900" y1="655.6475" x2="900" y2="544.3529">
					<stop  offset="0" style="stop-color:#DAE5E5"/>
					<stop  offset="0.5494" style="stop-color:#F1F5F5"/>
					<stop  offset="1" style="stop-color:#FFFFFF"/>
				</linearGradient>
				<path class="st21" d="M1143,600c0-26.5-21.5-48-48-48l0,0H705l0,0l0,0c-26.5,0-48,21.5-48,48c0,26.5,21.5,48,48,48l0,0l0,0h390
					l0,0C1121.5,648,1143,626.5,1143,600z"/>
			</g>
		</g>
	</g>
	<g id="Y">
		<g id="Lines_1_">
			<g>
				<path class="st12" d="M697.2,320.4c-6.9,0.7-13.5,2.3-19.7,4.6"/>
				<line class="st12" x1="730.3" y1="320" x2="715.7" y2="320"/>
				<path class="st12" d="M697.2,475.6c-6.9-0.7-13.5-2.3-19.7-4.6"/>
				<line class="st12" x1="730.3" y1="476" x2="715.7" y2="476"/>
				<path class="st12" d="M654.3,338.7C637.6,353.1,627,374.3,627,398c0,23.7,10.6,44.9,27.3,59.3"/>
				<path class="st22" d="M661.5,338.7c0,3.9-3.2,7.1-7.1,7.1c-3.9,0-7.1-3.2-7.1-7.1c0-3.9,3.2-7.1,7.1-7.1
					C658.3,331.6,661.5,334.8,661.5,338.7z"/>
				<path class="st22" d="M661.5,457.3c0,3.9-3.2,7.1-7.1,7.1s-7.1-3.2-7.1-7.1c0-3.9,3.2-7.1,7.1-7.1S661.5,453.3,661.5,457.3z"/>
			</g>
			<g>
				<path class="st12" d="M1102.8,320.4c6.9,0.7,13.5,2.3,19.7,4.6"/>
				<line class="st12" x1="1069.7" y1="320" x2="1084.3" y2="320"/>
				<path class="st12" d="M1102.8,475.6c6.9-0.7,13.5-2.3,19.7-4.6"/>
				<line class="st12" x1="1069.7" y1="476" x2="1084.3" y2="476"/>
				<path class="st12" d="M1145.7,338.7c16.7,14.3,27.3,35.6,27.3,59.3c0,23.7-10.6,44.9-27.3,59.3"/>
				<path class="st22" d="M1138.5,338.7c0,3.9,3.2,7.1,7.1,7.1s7.1-3.2,7.1-7.1c0-3.9-3.2-7.1-7.1-7.1S1138.5,334.8,1138.5,338.7z"
					/>
				<path class="st22" d="M1138.5,457.3c0,3.9,3.2,7.1,7.1,7.1s7.1-3.2,7.1-7.1c0-3.9-3.2-7.1-7.1-7.1S1138.5,453.3,1138.5,457.3z"
					/>
			</g>
			<g>
				<path class="st23" d="M1218.6,600c0-8.6-7-15.6-15.6-15.6s-15.6,7-15.6,15.6c0,8.6,7,15.6,15.6,15.6S1218.6,608.6,1218.6,600z"
					/>
				<path class="st20" d="M1210.1,600c0-3.9-3.2-7.1-7.1-7.1c-3.9,0-7.1,3.2-7.1,7.1c0,3.9,3.2,7.1,7.1,7.1
					C1206.9,607.1,1210.1,603.9,1210.1,600z"/>
				<g>
					<path class="st23" d="M1218.6,600h14.4c5.5,0,10-4.5,10-10V408c0-5.5-4.5-10-10-10h-60"/>
				</g>
			</g>
		</g>
		<g id="Body_5_">
			<g id="Dark_shape_1_">
				<path class="st16" d="M647,398c0,32,26,58,58,58h390c32,0,58-26,58-58s-26-58-58-58H705C673,340,647,366,647,398z"/>
			</g>
			<g id="Shadow_1_">
				<image style="overflow:visible;" width="502" height="113" xlink:href="A81780CA.png"  transform="matrix(1 0 0 1 658 351)">
				</image>
			</g>
			<g id="Body_1_">
				<linearGradient id="SVGID_3_" gradientUnits="userSpaceOnUse" x1="900" y1="453.6524" x2="900" y2="342.3578">
					<stop  offset="0" style="stop-color:#DAE5E5"/>
					<stop  offset="0.5494" style="stop-color:#F1F5F5"/>
					<stop  offset="1" style="stop-color:#FFFFFF"/>
				</linearGradient>
				<path class="st24" d="M1143,398c0-26.5-21.5-48-48-48l0,0H705l0,0l0,0c-26.5,0-48,21.5-48,48c0,26.5,21.5,48,48,48l0,0l0,0h390
					l0,0C1121.5,446,1143,424.5,1143,398z"/>
			</g>
		</g>
	</g>
	<g id="X">
		<g id="Lines">
			<g>
				<path class="st10" d="M697.2,118.4c-6.9,0.7-13.5,2.3-19.7,4.6"/>
				<line class="st10" x1="730.3" y1="118" x2="715.7" y2="118"/>
				<path class="st10" d="M697.2,273.6c-6.9-0.7-13.5-2.3-19.7-4.6"/>
				<line class="st10" x1="730.3" y1="274" x2="715.7" y2="274"/>
				<path class="st10" d="M654.3,136.8C637.6,151.1,627,172.3,627,196c0,23.7,10.6,44.9,27.3,59.3"/>
				<path class="st25" d="M661.5,136.8c0,3.9-3.2,7.1-7.1,7.1c-3.9,0-7.1-3.2-7.1-7.1c0-3.9,3.2-7.1,7.1-7.1
					C658.3,129.6,661.5,132.8,661.5,136.8z"/>
				<path class="st25" d="M661.5,255.3c0,3.9-3.2,7.1-7.1,7.1s-7.1-3.2-7.1-7.1c0-3.9,3.2-7.1,7.1-7.1S661.5,251.3,661.5,255.3z"/>
			</g>
			<g>
				<path class="st10" d="M1102.8,118.4c6.9,0.7,13.5,2.3,19.7,4.6"/>
				<line class="st10" x1="1069.7" y1="118" x2="1084.3" y2="118"/>
				<path class="st10" d="M1102.8,273.6c6.9-0.7,13.5-2.3,19.7-4.6"/>
				<line class="st10" x1="1069.7" y1="274" x2="1084.3" y2="274"/>
				<path class="st10" d="M1145.7,136.8c16.7,14.3,27.3,35.6,27.3,59.3c0,23.7-10.6,44.9-27.3,59.3"/>
				
					<ellipse transform="matrix(3.042179e-03 -1 1 3.042179e-03 1005.4371 1282.0063)" class="st25" cx="1145.7" cy="136.8" rx="7.1" ry="7.1"/>
				<path class="st25" d="M1138.5,255.3c0,3.9,3.2,7.1,7.1,7.1s7.1-3.2,7.1-7.1c0-3.9-3.2-7.1-7.1-7.1S1138.5,251.3,1138.5,255.3z"
					/>
			</g>
			<g>
				<path class="st26" d="M581.4,398c0-8.6,7-15.6,15.6-15.6s15.6,7,15.6,15.6c0,8.6-7,15.6-15.6,15.6S581.4,406.6,581.4,398z"/>
				<path class="st20" d="M589.9,398c0-3.9,3.2-7.1,7.1-7.1s7.1,3.2,7.1,7.1s-3.2,7.1-7.1,7.1S589.9,401.9,589.9,398z"/>
				<g>
					<path class="st26" d="M581.4,398H567c-5.5,0-10-4.5-10-10V206c0-5.5,4.5-10,10-10h60"/>
				</g>
			</g>
		</g>
		<g id="Shape">
			<g id="Dark_shape">
				<path class="st16" d="M647,196c0,32,26,58,58,58h390c32,0,58-26,58-58s-26-58-58-58H705C673,138,647,164,647,196z"/>
			</g>
			<g id="Shadow">
				<image style="overflow:visible;" width="502" height="113" xlink:href="A81780CB.png"  transform="matrix(1 0 0 1 658 149)">
				</image>
			</g>
			<g id="Body">
				<linearGradient id="SVGID_4_" gradientUnits="userSpaceOnUse" x1="900" y1="251.6572" x2="900" y2="140.3627">
					<stop  offset="0" style="stop-color:#DAE5E5"/>
					<stop  offset="0.5494" style="stop-color:#F1F5F5"/>
					<stop  offset="1" style="stop-color:#FFFFFF"/>
				</linearGradient>
				<path class="st27" d="M1143,196c0-26.5-21.5-48-48-48l0,0H705l0,0l0,0c-26.5,0-48,21.5-48,48c0,26.5,21.5,48,48,48l0,0l0,0h390
					l0,0C1121.5,244,1143,222.5,1143,196z"/>
			</g>
		</g>
	</g>
</g>
<g id="Names">
	<text transform="matrix(1 0 0 1 718.9976 208.9443)" class="st1 st2 st3">‘Sharing Economy Platforms’</text>
	<text transform="matrix(1 0 0 1 769.0005 410.9395)" class="st1 st2 st3">Financial Institutions</text>
	<text transform="matrix(1 0 0 1 773.3735 612.9346)" class="st1 st2 st3">Payment Processors</text>
	<text transform="matrix(1 0 0 1 793.0376 814.9297)" class="st1 st2 st3">FOREX Exchange</text>
</g>
<g id="Icons">
	<g>
		<path class="st15" d="M1288.3,771.7v24.4h33.1v3.4h25.3v-27.7H1288.3z M1317.5,792.3c-3.7,0-6.7-3-6.7-6.7c0-3.7,3-6.7,6.7-6.7
			s6.7,3,6.7,6.7C1324.2,789.3,1321.2,792.3,1317.5,792.3z"/>
		<path class="st15" d="M1270.5,824.5v8.4c0,1.4,1.2,2.6,2.6,2.6h48.3V827h-48.3C1271.6,827,1270.5,825.9,1270.5,824.5z"/>
		<path class="st28" d="M1304.3,782.6h3.1c0.6,0,1-0.4,1-1c0-0.6-0.4-1-1-1h-3.1c-0.6,0-1,0.4-1,1
			C1303.3,782.1,1303.7,782.6,1304.3,782.6z M1307.3,788.6h-3.1c-0.6,0-1,0.4-1,1c0,0.6,0.4,1,1,1h3.1c0.6,0,1-0.4,1-1
			C1308.3,789,1307.9,788.6,1307.3,788.6z M1300,786.6h6.4c0.6,0,1-0.4,1-1c0-0.6-0.4-1-1-1h-6.4c-0.6,0-1,0.4-1,1
			C1299,786.1,1299.5,786.6,1300,786.6z M1327.6,782.6h3.1c0.6,0,1-0.4,1-1c0-0.6-0.4-1-1-1h-3.1c-0.6,0-1,0.4-1,1
			C1326.6,782.1,1327,782.6,1327.6,782.6z M1334.9,784.6h-6.4c-0.6,0-1,0.4-1,1c0,0.6,0.4,1,1,1h6.4c0.6,0,1-0.4,1-1
			C1335.9,785,1335.4,784.6,1334.9,784.6z M1342.5,774.4h-1.6c-0.6,0-1,0.4-1,1c0,0.6,0.4,1,1,1h0.6v18.2h-0.6c-0.6,0-1,0.4-1,1
			c0,0.6,0.4,1,1,1h1.6c0.6,0,1-0.4,1-1v-20.2C1343.5,774.8,1343.1,774.4,1342.5,774.4z M1317.5,777.9c-2.1,0-4,0.8-5.5,2.3
			c-1.5,1.5-2.3,3.4-2.3,5.5c0,4.3,3.5,7.7,7.7,7.7c4.3,0,7.7-3.5,7.7-7.7C1325.2,781.3,1321.7,777.9,1317.5,777.9z M1317.5,791.3
			c-3.1,0-5.7-2.6-5.7-5.7c0-1.5,0.6-3,1.7-4c1.1-1.1,2.5-1.7,4-1.7c3.1,0,5.7,2.6,5.7,5.7C1323.2,788.7,1320.6,791.3,1317.5,791.3z
			 M1330.7,788.6h-3.1c-0.6,0-1,0.4-1,1c0,0.6,0.4,1,1,1h3.1c0.6,0,1-0.4,1-1C1331.7,789,1331.2,788.6,1330.7,788.6z M1314.2,832.4
			h3.2c0.6,0,1-0.4,1-1c0-0.6-0.4-1-1-1h-3.2c-0.6,0-1,0.4-1,1C1313.2,832,1313.7,832.4,1314.2,832.4z M1306.5,830.4
			c-0.6,0-1,0.4-1,1c0,0.6,0.4,1,1,1h3.2c0.6,0,1-0.4,1-1c0-0.6-0.4-1-1-1H1306.5z M1309.1,815.8c0,0.5,0.4,0.9,0.9,0.9
			c0.5,0,0.9-0.4,0.9-0.9c0-0.5-0.4-0.9-0.9-0.9S1309.1,815.3,1309.1,815.8z M1302.1,830.4h-3.2c-0.6,0-1,0.4-1,1c0,0.6,0.4,1,1,1
			h3.2c0.6,0,1-0.4,1-1C1303.1,830.9,1302.6,830.4,1302.1,830.4z M1323.7,807.4h-1.3v-11.3c0-0.6-0.4-1-1-1h-28v-18.7h0.6
			c0.6,0,1-0.4,1-1c0-0.6-0.4-1-1-1h-1.6c-0.6,0-1,0.4-1,1v19.7h-18.3c-0.9,0-1.6-0.7-1.6-1.6s0.7-1.6,1.6-1.6h15.2c0.6,0,1-0.4,1-1
			c0-0.6-0.4-1-1-1h-15.2c-2,0-3.6,1.6-3.6,3.6v39.3c0,2,1.6,3.6,3.6,3.6h48.3c0.6,0,1-0.4,1-1v-11.3h1.3c0.6,0,1-0.4,1-1v-14.7
			C1324.7,807.9,1324.2,807.4,1323.7,807.4z M1320.4,834.4h-47.3c-0.9,0-1.6-0.7-1.6-1.6v-36.1c0.5,0.2,1,0.4,1.6,0.4h47.3v10.3
			H1310c-2.2,0-4.3,0.9-5.9,2.4c-1.6,1.6-2.4,3.7-2.4,5.9c0,4.6,3.7,8.3,8.3,8.3h10.3V834.4z M1322.7,822.1H1310
			c-3.5,0-6.3-2.8-6.3-6.3c0-1.7,0.7-3.3,1.9-4.5c1.2-1.2,2.8-1.9,4.5-1.9h12.6V822.1z M1279.1,830.4h-3.2c-0.6,0-1,0.4-1,1
			c0,0.6,0.4,1,1,1h3.2c0.6,0,1-0.4,1-1C1280.1,830.9,1279.6,830.4,1279.1,830.4z M1294.4,830.4h-3.2c-0.6,0-1,0.4-1,1
			c0,0.6,0.4,1,1,1h3.2c0.6,0,1-0.4,1-1C1295.4,830.9,1295,830.4,1294.4,830.4z M1286.7,830.4h-3.2c-0.6,0-1,0.4-1,1
			c0,0.6,0.4,1,1,1h3.2c0.6,0,1-0.4,1-1C1287.7,830.9,1287.3,830.4,1286.7,830.4z"/>
	</g>
	<g>
		<path class="st22" d="M1270.7,425.1h76.3V419h-76.3V425.1z M1270.7,372.1v3.8h76.3v-3.8H1270.7z"/>
		<path class="st28" d="M1346.9,371.1h-76.3c-0.6,0-1,0.4-1,1v3.8c0,0,0,0,0,0c0,0,0,0,0,0V419c0,0,0,0,0,0s0,0,0,0v6.1
			c0,0.6,0.4,1,1,1h27.7v7.8h-14.7c-0.6,0-1,0.4-1,1v3.6c0,0.6,0.4,1,1,1h50.3c0.6,0,1-0.4,1-1v-3.6c0-0.6-0.4-1-1-1h-14.7v-7.8
			h27.7c0.6,0,1-0.4,1-1v-53C1347.9,371.5,1347.5,371.1,1346.9,371.1z M1332.9,435.9v1.6h-48.3v-1.6H1332.9z M1300.4,433.9v-7.8
			h16.8v7.8H1300.4z M1345.9,424.1h-74.3V420h74.3V424.1z M1345.9,418h-74.3v-41.2h74.3V418z M1345.9,374.9h-74.3v-1.8h74.3V374.9z
			 M1343,423c0.5,0,0.9-0.4,0.9-0.9c0-0.5-0.4-0.9-0.9-0.9c-0.5,0-0.9,0.4-0.9,0.9C1342.1,422.6,1342.5,423,1343,423z M1339.2,423
			c0.5,0,0.9-0.4,0.9-0.9c0-0.5-0.4-0.9-0.9-0.9c-0.5,0-0.9,0.4-0.9,0.9C1338.3,422.6,1338.7,423,1339.2,423z M1335.5,423
			c0.5,0,0.9-0.4,0.9-0.9c0-0.5-0.4-0.9-0.9-0.9c-0.5,0-0.9,0.4-0.9,0.9C1334.5,422.6,1334.9,423,1335.5,423z M1282.4,383.1h23.3
			c0.6,0,1-0.4,1-1c0-0.6-0.4-1-1-1h-23.3c-0.6,0-1,0.4-1,1C1281.4,382.6,1281.9,383.1,1282.4,383.1z M1276.1,389.7h29.7
			c0.6,0,1-0.4,1-1c0-0.6-0.4-1-1-1h-29.7c-0.6,0-1,0.4-1,1C1275.1,389.2,1275.5,389.7,1276.1,389.7z M1276.1,396.4h29.7
			c0.6,0,1-0.4,1-1c0-0.6-0.4-1-1-1h-29.7c-0.6,0-1,0.4-1,1C1275.1,396,1275.5,396.4,1276.1,396.4z M1276.1,409.9h16.9
			c0.6,0,1-0.4,1-1c0-0.6-0.4-1-1-1h-16.9c-0.6,0-1,0.4-1,1C1275.1,409.5,1275.5,409.9,1276.1,409.9z M1276.1,403.2h29.7
			c0.6,0,1-0.4,1-1c0-0.6-0.4-1-1-1h-29.7c-0.6,0-1,0.4-1,1C1275.1,402.7,1275.5,403.2,1276.1,403.2z"/>
		<path class="st22" d="M1335.1,386.8v27.3h6.1v-27.3H1335.1z M1324.6,414.1h6.1v-16h-6.1V414.1z M1314,414.1h6.1v-5.8h-6.1V414.1z"
			/>
	</g>
	<g>
		<path class="st18" d="M488.2,564.6c13.5,0,24.5,11,24.5,24.5v7.7c0,1.8,5.1,7.6,6.4,9.9c0.6,1.1,0,2.2-1.1,2.2s-5.3,0-5.3,0
			s0,6.2,0,8.4c0,2.2-1.2,4.8-4.4,4.8c-3.2,0-15.4,0-15.4,0l6.3,11.1h-35.6v-44C463.7,575.6,474.6,564.6,488.2,564.6z"/>
		<path class="st28" d="M506.7,595c0,0.8-0.7,1.5-1.5,1.5c-0.8,0-1.5-0.7-1.5-1.5c0-0.8,0.7-1.5,1.5-1.5
			C506,593.5,506.7,594.2,506.7,595z"/>
		<path class="st28" d="M489,626.3v1.9h2v-1.9H489z M485.8,628.3h2v-1.9h-2V628.3z M482.7,628.3h2v-1.9h-2V628.3z M479.6,628.3h2
			v-1.9h-2V628.3z M476.4,628.3h2v-1.9h-2V628.3z M473.3,628.3h2v-1.9h-2V628.3z M470.1,628.3h2v-1.9h-2V628.3z M467,628.3h2v-1.9
			h-2V628.3z M463.9,628.3h2v-1.9h-2V628.3z M460.7,628.3h2v-1.9h-2V628.3z M457.6,628.3h2v-1.9h-2V628.3z M454.4,628.3h2v-1.9h-2
			V628.3z"/>
		<path class="st18" d="M444.3,574c-0.6-1.2-0.9-2.5-0.9-3.8c0-4.9,4-8.9,8.9-8.9c1.9,0,3.7,0.6,5.2,1.7l0,0
			c1.4-3.8,5.1-6.5,9.4-6.5c4.8,0,8.9,3.4,9.8,8c0.9-0.3,1.8-0.5,2.8-0.5c4.2,0,7.6,3.4,7.6,7.6c0,0.9-0.2,1.7-0.4,2.5H444.3z"/>
	</g>
	<g>
		<rect x="512.1" y="968.1" class="st29" width="10.3" height="18.6"/>
		<path class="st28" d="M584.7,1004.2L560.5,980c-3.9-3.9-14.5-12.8-29.4-12.8h-19c-0.6,0-1,0.4-1,1s0.4,1,1,1h9.3v16.6h-9.3
			c-0.6,0-1,0.4-1,1c0,0.6,0.4,1,1,1h15.8c0.4,5.2,4.2,8.4,6.7,10.6c0.8,0.7,2,1.7,2,2.1v16.7c0,0.6,0.4,1,1,1
			c1.4,0,3.5-0.5,5.3-1.7c1.5-1,3.3-3,3.3-6.3l0-12.1c0-2.4,0.9-5.5,2.7-6.6c1.2-0.7,2.6-0.5,4.4,0.5c6.8,4,15.4,9.5,20.5,12.8
			l2.6,1.7c3,1.9,5.9,1.7,8.3-0.7C585.1,1005.2,585.1,1004.6,584.7,1004.2z M577.5,1004.7l-2.6-1.7c-5.1-3.3-13.7-8.9-20.6-12.9
			c-3-1.7-5.1-1.2-6.4-0.5c-2.6,1.5-3.7,5.2-3.7,8.3l0,12.1c0,2-0.8,3.5-2.4,4.7c-1,0.7-2.2,1.1-3.1,1.3v-15.6
			c0-1.2-1.1-2.2-2.7-3.6c-2.5-2.2-6-5.3-6-10.1c0-0.3-0.1-0.5-0.3-0.7s-0.4-0.3-0.7-0.3h-5.4v-16.6h7.6c14.2,0,24.3,8.6,28,12.3
			l23.5,23.5C581,1005.9,579.4,1005.9,577.5,1004.7z M519.4,982.6c0-0.6-0.5-1.1-1.1-1.1c-0.6,0-1.1,0.5-1.1,1.1
			c0,0.6,0.5,1.1,1.1,1.1C518.9,983.7,519.4,983.2,519.4,982.6z"/>
		<polygon class="st29" points="565.7,1043.3 588.3,1015.2 543.1,1015.2 		"/>
		<path class="st28" d="M589.3,1015.5C589.3,1015.5,589.3,1015.4,589.3,1015.5c0.1-0.2,0.1-0.3,0.1-0.4c0,0,0-0.1,0-0.1
			c0-0.1,0-0.2-0.1-0.3c0,0,0-0.1,0-0.1c0,0,0,0,0-0.1l-5.7-8.5c0,0,0,0,0,0c-0.1-0.1-0.1-0.2-0.2-0.2c0,0,0,0,0,0
			c-0.1-0.1-0.2-0.1-0.3-0.1c0,0-0.1,0-0.1,0c0,0-0.1,0-0.1,0h-33.8c0,0-0.1,0-0.1,0c0,0-0.1,0-0.1,0c-0.1,0-0.2,0.1-0.3,0.1
			c0,0,0,0,0,0c-0.1,0.1-0.2,0.1-0.2,0.2c0,0,0,0,0,0l-5.7,8.5c0,0,0,0,0,0.1c0,0,0,0.1,0,0.1c0,0.1-0.1,0.2-0.1,0.3
			c0,0,0,0.1,0,0.1c0,0.1,0,0.2,0,0.3c0,0,0,0,0,0.1c0,0.1,0,0.1,0.1,0.2c0,0,0.1,0.1,0.1,0.1c0,0,0,0,0,0L565,1044c0,0,0,0,0,0
			c0,0,0,0,0,0c0,0,0,0,0,0c0,0,0,0,0,0c0,0,0.1,0,0.1,0c0,0,0.1,0.1,0.1,0.1c0,0,0,0,0,0c0,0,0,0,0,0c0,0,0,0,0,0c0,0,0.1,0,0.1,0
			c0,0,0.1,0,0.1,0c0,0,0,0,0.1,0c0,0,0,0,0.1,0c0,0,0.1,0,0.1,0c0,0,0.1,0,0.1,0c0,0,0,0,0,0c0,0,0,0,0,0c0,0,0,0,0,0
			c0,0,0.1,0,0.1-0.1c0,0,0.1,0,0.1,0c0,0,0,0,0,0c0,0,0,0,0,0c0,0,0,0,0,0c0,0,0,0,0,0l22.6-28.2c0,0,0,0,0,0c0,0,0.1-0.1,0.1-0.1
			C589.2,1015.6,589.2,1015.5,589.3,1015.5z M548.8,1008.4l3.8,5.7H545L548.8,1008.4z M586.5,1014.2h-7.7l3.8-5.7L586.5,1014.2z
			 M575.5,1016.2l-9.7,24.5l-9.7-24.5H575.5z M557.5,1014.2l8.2-6.3l8.2,6.3H557.5z M576.7,1013.7l-8-6.1h12.1L576.7,1013.7z
			 M554.8,1013.7l-4.1-6.1h12.1L554.8,1013.7z M553.9,1016.2l8.5,21.3l-17.1-21.3H553.9z M577.6,1016.2h8.6l-17.1,21.3L577.6,1016.2
			z"/>
	</g>
	<g>
		<path class="st25" d="M484,157.9c21.1,0,38.1,17.1,38.1,38.1c0,21.1-17.1,38.1-38.1,38.1c-10.5,0-20.1-4.3-27-11.2l27-27V157.9z"
			/>
		<path class="st22" d="M457,223c-6.9-6.9-11.2-16.4-11.2-27H484L457,223z"/>
		<path class="st28" d="M485,157.9c0-0.6-0.4-1-1-1c-21.6,0-39.1,17.6-39.1,39.1c0,0.3,0.1,0.5,0.3,0.7s0.4,0.3,0.7,0.3h35.7
			l-25.3,25.3c-0.4,0.4-0.4,1,0,1.4c0.4,0.4,1,0.4,1.4,0l27-27c0.1-0.1,0.2-0.2,0.2-0.3c0.1-0.1,0.1-0.3,0.1-0.4V157.9z M483,158.9
			V195h-36.1C447.4,175.3,463.3,159.4,483,158.9z"/>
	</g>
</g>
</svg>
