<svg id="Layer_1" data-name="Layer 1" xmlns="http://www.w3.org/2000/svg" xmlns:xlink="http://www.w3.org/1999/xlink" viewBox="0 0 416.1 219.7"><defs><style>.cls-1,.cls-18,.cls-19,.cls-22,.cls-23,.cls-25,.cls-26,.cls-27,.cls-28,.cls-29,.cls-30{fill:none;}.cls-2,.cls-34{fill:#83d0f5;}.cls-3{fill:#6ab0e2;}.cls-32,.cls-4{fill:#fdd67a;}.cls-35,.cls-5{fill:#fcc103;}.cls-6{fill:#009fe3;}.cls-7{clip-path:url(#clip-path);}.cls-8{fill:#fcc006;}.cls-9{fill:url(#linear-gradient);}.cls-10{fill:url(#linear-gradient-2);}.cls-11{fill:url(#linear-gradient-3);}.cls-12{fill:url(#linear-gradient-4);}.cls-13{fill:url(#linear-gradient-5);}.cls-14{fill:url(#linear-gradient-6);}.cls-15{clip-path:url(#clip-path-2);}.cls-16{fill:url(#linear-gradient-7);}.cls-17{fill:#0088c2;}.cls-18,.cls-19,.cls-22,.cls-23,.cls-25,.cls-26,.cls-27,.cls-28,.cls-29,.cls-30{stroke:#fff;}.cls-18,.cls-19,.cls-22,.cls-27,.cls-28,.cls-29,.cls-30{stroke-miterlimit:10;}.cls-18{stroke-width:0.74px;}.cls-19{stroke-width:0.25px;}.cls-20{fill:#d6a500;}.cls-21{fill:#ffd36c;}.cls-22{stroke-width:2px;}.cls-23,.cls-25,.cls-26{stroke-linejoin:round;}.cls-23{stroke-width:1.54px;}.cls-24{fill:#fff;}.cls-25{stroke-width:1.87px;}.cls-26{stroke-width:1.53px;}.cls-27,.cls-29{stroke-width:1.1px;}.cls-28{stroke-width:1.05px;}.cls-29{stroke-linecap:round;}.cls-30{stroke-width:0.3px;}.cls-31,.cls-32,.cls-34,.cls-35{font-size:10px;font-family:COCOGOOSE, COCOGOOSE;}.cls-31{fill:#1c9cd9;}.cls-33{letter-spacing:-0.13em;}</style><clipPath id="clip-path" transform="translate(-28 -21.4)"><rect class="cls-1" x="202.1" y="86.6" width="46.6" height="54.16"/></clipPath><linearGradient id="linear-gradient" x1="204.39" y1="88.9" x2="204.39" y2="88.9" gradientUnits="userSpaceOnUse"><stop offset="0" stop-color="#a1d8f6"/><stop offset="0.05" stop-color="#91d1f3"/><stop offset="0.18" stop-color="#6cc1eb"/><stop offset="0.32" stop-color="#4db3e4"/><stop offset="0.46" stop-color="#36a9df"/><stop offset="0.62" stop-color="#25a2dc"/><stop offset="0.79" stop-color="#1b9dda"/><stop offset="1" stop-color="#189cd9"/></linearGradient><linearGradient id="linear-gradient-2" x1="206.93" y1="115.38" x2="248.66" y2="115.38" xlink:href="#linear-gradient"/><linearGradient id="linear-gradient-3" x1="219.32" y1="109.46" x2="219.32" y2="109.46" xlink:href="#linear-gradient"/><linearGradient id="linear-gradient-4" x1="219.28" y1="105.76" x2="234.31" y2="105.76" xlink:href="#linear-gradient"/><linearGradient id="linear-gradient-5" x1="204.06" y1="109.2" x2="204.07" y2="109.2" xlink:href="#linear-gradient"/><linearGradient id="linear-gradient-6" x1="219.27" y1="124.22" x2="235.99" y2="124.22" xlink:href="#linear-gradient"/><clipPath id="clip-path-2" transform="translate(-28 -21.4)"><path class="cls-1" d="M208.1,86.6a4.6,4.6,0,0,0-1.9.8V99.8a.7.7,0,0,1-.8.8.8.8,0,0,1-.8-.8V89.2a16.9,16.9,0,0,0-2.4,9.1c0,5,1.7,9.3,4.2,11v31.4h4.7V123.3h0V109.4c2.5-1.7,4.3-6,4.3-11.1a16.9,16.9,0,0,0-2.4-9.1V99.8a.8.8,0,0,1-.8.8.7.7,0,0,1-.8-.8V87.4a4.4,4.4,0,0,0-1.7-.8V99.8a.8.8,0,0,1-.8.8.7.7,0,0,1-.8-.8Z"/></clipPath><linearGradient id="linear-gradient-7" x1="65.36" y1="263.48" x2="65.53" y2="263.48" gradientTransform="matrix(74.79, 0, 0, -74.79, -4713.55, 19797.2)" gradientUnits="userSpaceOnUse"><stop offset="0" stop-color="#ffe447"/><stop offset="0.08" stop-color="#fedd3b"/><stop offset="0.27" stop-color="#fdd024"/><stop offset="0.48" stop-color="#fdc713"/><stop offset="0.71" stop-color="#fcc209"/><stop offset="1" stop-color="#fcc006"/></linearGradient></defs><title>Orderportals_schema</title><path class="cls-2" d="M333.5,70.3a23.2,23.2,0,1,1,23.2-23.2A23.2,23.2,0,0,1,333.5,70.3Z" transform="translate(-28 -21.4)"/><path class="cls-3" d="M333.5,24.4a22.7,22.7,0,1,1-22.7,22.7,22.7,22.7,0,0,1,22.7-22.7m0-1a23.7,23.7,0,1,0,23.7,23.7,23.7,23.7,0,0,0-23.7-23.7Z" transform="translate(-28 -21.4)"/><g id="_4" data-name="4"><path class="cls-4" d="M220.3,209.6,204.4,184l14.8-26.9a41.8,41.8,0,0,1-38.3-38.7l-26.7-14.7-25.7,16A94.3,94.3,0,0,0,220.3,209.6Z" transform="translate(-28 -21.4)"/></g><g id="_3" data-name="3"><path class="cls-5" d="M210.7,183.8l16,25.7a94.3,94.3,0,0,0,89.9-91.9l-25.6,16-26.9-14.8a41.7,41.7,0,0,1-38.7,38.3Z" transform="translate(-28 -21.4)"/></g><g id="_2" data-name="2"><path class="cls-2" d="M316.5,111.3a94.3,94.3,0,0,0-91.8-89.9L240.6,47,225.8,73.9a41.7,41.7,0,0,1,38.3,38.7l26.7,14.7Z" transform="translate(-28 -21.4)"/></g><g id="_1" data-name="1"><path class="cls-6" d="M234.3,47.2l-16-25.7a94.2,94.2,0,0,0-89.9,91.8L154,97.4l26.9,14.8a41.9,41.9,0,0,1,38.7-38.4Z" transform="translate(-28 -21.4)"/></g><g class="cls-7"><path class="cls-8" d="M243.9,111.4" transform="translate(-28 -21.4)"/><polygon class="cls-9" points="204.4 88.9 204.4 88.9 204.4 88.9 204.4 88.9"/><path class="cls-10" d="M247.1,117.9h0a17.7,17.7,0,0,0-3-4.5,15.9,15.9,0,0,0,1.5-2.9h0a14.3,14.3,0,0,0,.9-5,15,15,0,0,0-1.2-6h0a15.1,15.1,0,0,0-3.3-4.9,16.3,16.3,0,0,0-4.9-3.3h0a14.8,14.8,0,0,0-5.9-1.2H213.3a15,15,0,0,1,1.2,3.4h16.7a11.8,11.8,0,0,1,4.6.9h0a12.5,12.5,0,0,1,3.8,2.5,11.6,11.6,0,0,1,2.6,3.9,11.9,11.9,0,0,1,.9,4.7,11.2,11.2,0,0,1-.6,3.8,9.2,9.2,0,0,1-1.8,3.2l-1.1,1.2,1.2,1.1a13.5,13.5,0,0,1,3.3,4.5,14.1,14.1,0,0,1,1.1,5.4,12.8,12.8,0,0,1-.9,4.8h0a14.6,14.6,0,0,1-2.7,4.1,13.6,13.6,0,0,1-3.9,2.7,10.6,10.6,0,0,1-4.6,1H210.3V107.6a3.5,3.5,0,0,1-1.8.5,4,4,0,0,1-1.5-.3v29.8a2.8,2.8,0,0,0,1,2.3h0a3.3,3.3,0,0,0,2.1.7h23a14.1,14.1,0,0,0,6-1.3h0a16.6,16.6,0,0,0,4.9-3.4h0a17.2,17.2,0,0,0,3.3-5.1,14.2,14.2,0,0,0,1.3-6.1A15.7,15.7,0,0,0,247.1,117.9Z" transform="translate(-28 -21.4)"/><polygon class="cls-11" points="219.3 109.5 219.3 109.5 219.3 109.5 219.3 109.5"/><path class="cls-12" d="M233.8,103.3h0a6.6,6.6,0,0,0-1.4-2h0a5.8,5.8,0,0,0-2-1.3h0a5.8,5.8,0,0,0-2.6-.5h-8.5V112h8.4a7.5,7.5,0,0,0,2.6-.4h0a5.7,5.7,0,0,0,2.1-1.3,9,9,0,0,0,1.4-2h0a7.4,7.4,0,0,0,.5-2.5A7,7,0,0,0,233.8,103.3Zm-3.1,3.7-.6.9h0l-1,.6-1.4.2h-5.1v-5.9h5.2a2.8,2.8,0,0,1,1.3.3,2.1,2.1,0,0,1,1,.6,2.7,2.7,0,0,1,.8,2.1,2.5,2.5,0,0,1-.2,1.2l1.5.6Z" transform="translate(-28 -21.4)"/><polygon class="cls-13" points="204.1 109.2 204.1 109.2 204.1 109.2 204.1 109.2"/><path class="cls-14" d="M219.3,131.2h10.1a6.6,6.6,0,0,0,2.7-.6,5.3,5.3,0,0,0,2-1.6h0a6.4,6.4,0,0,0,1.4-2.2h0a7.5,7.5,0,0,0,.5-2.6,7.4,7.4,0,0,0-.5-2.5,9.8,9.8,0,0,0-1.3-2.2h0a8.3,8.3,0,0,0-2.1-1.6h0a6.4,6.4,0,0,0-2.7-.7H219.3Zm3.3-10.6h6.8a2.7,2.7,0,0,1,1.2.3,2.7,2.7,0,0,1,1,.8,4.2,4.2,0,0,1,.8,1.2,6.9,6.9,0,0,1,.2,1.3,6.8,6.8,0,0,1-.2,1.4l1.5.6-1.5-.6a4.2,4.2,0,0,1-.8,1.2,3.9,3.9,0,0,1-1,.8h0a2.4,2.4,0,0,1-1.2.3h-6.8Z" transform="translate(-28 -21.4)"/></g><g class="cls-15"><rect class="cls-16" x="174.2" y="65.2" width="13.1" height="54.17"/></g><path class="cls-6" d="M104.7,70.3a23.2,23.2,0,1,1,23.2-23.2A23.2,23.2,0,0,1,104.7,70.3Z" transform="translate(-28 -21.4)"/><path class="cls-17" d="M104.7,24.4A22.7,22.7,0,1,1,82,47.1a22.7,22.7,0,0,1,22.7-22.7m0-1a23.7,23.7,0,1,0,23.7,23.7,23.7,23.7,0,0,0-23.7-23.7Z" transform="translate(-28 -21.4)"/><rect class="cls-18" x="94.3" y="30.4" width="20.7" height="33.49" rx="2.9" ry="2.9" transform="matrix(0.97, 0.26, -0.26, 0.97, -12.5, -46.56)"/><rect class="cls-18" x="95.9" y="34.2" width="18" height="24.5" transform="translate(-12.7 -46.6) rotate(14.8)"/><circle class="cls-18" cx="73.1" cy="39.4" r="1.5"/><rect class="cls-19" x="103.4" y="32.9" width="9.8" height="0.59" transform="translate(-15.9 -48) rotate(14.8)"/><rect class="cls-18" x="165.9" y="49.7" width="20.7" height="33.49" rx="2.9" ry="2.9" transform="translate(-5.2 -64.2) rotate(14.8)"/><rect class="cls-18" x="167.4" y="53.5" width="18" height="24.5" transform="translate(-5.3 -64.3) rotate(14.8)"/><circle class="cls-18" cx="144.6" cy="58.7" r="1.5"/><rect class="cls-19" x="175" y="52.3" width="9.8" height="0.59" transform="translate(-8.6 -65.6) rotate(14.8)"/><path class="cls-5" d="M333.5,191.4A22.5,22.5,0,1,1,356,168.9,22.5,22.5,0,0,1,333.5,191.4Z" transform="translate(-28 -21.4)"/><path class="cls-20" d="M333.5,146.9a22,22,0,1,1-22,22,21.9,21.9,0,0,1,22-22m0-1a23,23,0,1,0,23,23,23,23,0,0,0-23-23Z" transform="translate(-28 -21.4)"/><path class="cls-21" d="M104.7,191.4a22.5,22.5,0,1,1,22.5-22.5A22.6,22.6,0,0,1,104.7,191.4Z" transform="translate(-28 -21.4)"/><path class="cls-5" d="M104.7,146.9a22,22,0,1,1-22.1,22,22,22,0,0,1,22.1-22m0-1a23,23,0,1,0,23,23,23,23,0,0,0-23-23Z" transform="translate(-28 -21.4)"/><path class="cls-22" d="M352.2,169.5H352l-.4-.6h0a2.4,2.4,0,0,0-1.3-.7l-8.1-.8-3.3-3.4a2.9,2.9,0,0,0-2.1-.9H326.7a2.9,2.9,0,0,0-2.1.9l-3.9,4h-3.6a2.1,2.1,0,0,0-2.1,1.3h0v.2h-.1v3.6a.9.9,0,0,0,.8.9h4.8a3,3,0,0,0,3,2.9,3.1,3.1,0,0,0,3.1-2.9h13.3a3,3,0,0,0,6,0h6c.2,0,.3-.2.3-.4v-.9h0Z" transform="translate(-28 -21.4)"/><path class="cls-23" d="M330.8,169.9a4,4,0,0,1,5.4,0" transform="translate(-28 -21.4)"/><path class="cls-23" d="M329.1,168s3.8-3.8,8.8,0" transform="translate(-28 -21.4)"/><path class="cls-23" d="M327.5,166s5.1-5.2,12,0" transform="translate(-28 -21.4)"/><circle class="cls-24" cx="305.5" cy="150.7" r="1.1"/><path class="cls-22" d="M283.7,168.3h-.2l-.4-.6h0a2.4,2.4,0,0,0-1.3-.7l-8.1-.7-3.3-3.5a2.9,2.9,0,0,0-2.1-.9H258.2a2.9,2.9,0,0,0-2.1.9l-3.9,4h-3.6a2.1,2.1,0,0,0-2.1,1.3h0v.2h-.1v3.7a.9.9,0,0,0,.8.8h4.8a3,3,0,0,0,3,2.9,3.1,3.1,0,0,0,3.1-2.9h13.3a2.9,2.9,0,0,0,3,2.9,3,3,0,0,0,3-2.9h6c.2,0,.3-.2.3-.4v-.9h0Z" transform="translate(-28 -21.4)"/><path class="cls-23" d="M260.9,168.7a4,4,0,0,1,5.4,0" transform="translate(-28 -21.4)"/><path class="cls-23" d="M259.2,166.8s3.8-3.8,8.8,0" transform="translate(-28 -21.4)"/><path class="cls-23" d="M257.6,164.8s5.1-5.2,12,0" transform="translate(-28 -21.4)"/><circle class="cls-24" cx="235.7" cy="149.5" r="1.1"/><polygon class="cls-25" points="293.5 25.8 293.5 38.7 317.4 38.7 317.4 26.2 319.9 28.5 322.3 26.4 305.3 10 288.7 26.1 291 28.1 293.5 25.8"/><path class="cls-26" d="M330.8,52.2a4,4,0,0,1,5.4,0" transform="translate(-28 -21.4)"/><path class="cls-26" d="M329.1,50.3s3.8-3.8,8.8,0" transform="translate(-28 -21.4)"/><path class="cls-26" d="M327.5,48.3s5.1-5.1,12,0" transform="translate(-28 -21.4)"/><circle class="cls-24" cx="307.4" cy="33" r="1.1"/><polygon class="cls-25" points="233.3 50.8 233.3 63.7 257.1 63.7 257.1 51.3 259.7 53.6 262.1 51.5 245.1 35.1 228.5 51.1 230.7 53.2 233.3 50.8"/><path class="cls-26" d="M270.3,77.3a4,4,0,0,1,5.4,0" transform="translate(-28 -21.4)"/><path class="cls-26" d="M268.6,75.3s3.8-3.7,8.8,0" transform="translate(-28 -21.4)"/><path class="cls-26" d="M267,73.4s5.1-5.2,12,0" transform="translate(-28 -21.4)"/><circle class="cls-24" cx="245.1" cy="58.1" r="1.1"/><path class="cls-27" d="M117.3,159.2H92.1a1.7,1.7,0,0,0-1.7,1.7v14.5a1.7,1.7,0,0,0,1.7,1.7h8.8v3.8H98.8a.7.7,0,1,0,0,1.4h11.8a.7.7,0,1,0,0-1.4h-2.2v-3.8h8.9a1.7,1.7,0,0,0,1.6-1.7V160.9A1.7,1.7,0,0,0,117.3,159.2Z" transform="translate(-28 -21.4)"/><rect class="cls-28" x="64.1" y="140.4" width="25.1" height="12.82"/><line class="cls-29" x1="74.3" y1="155.7" x2="79.1" y2="155.7"/><circle class="cls-30" cx="76.7" cy="154.5" r="0.6"/><path class="cls-27" d="M181.2,147.5H156a1.7,1.7,0,0,0-1.6,1.7v14.5a1.7,1.7,0,0,0,1.6,1.7h8.9v3.8h-2.2a.7.7,0,0,0,0,1.4h11.8a.7.7,0,1,0,0-1.4h-2.1v-3.8h8.8a1.8,1.8,0,0,0,1.7-1.7V149.2A1.8,1.8,0,0,0,181.2,147.5Z" transform="translate(-28 -21.4)"/><rect class="cls-28" x="127.9" y="128.7" width="25.1" height="12.82"/><line class="cls-29" x1="138.2" y1="144.1" x2="143" y2="144.1"/><circle class="cls-30" cx="140.6" cy="142.8" r="0.6"/><text class="cls-31" transform="translate(2 49.1)">MOBILE <tspan x="0" y="12">DEVICE ORDER</tspan></text><text class="cls-32" transform="translate(0 183.6)">WEBAPPLIC<tspan class="cls-33" x="62.2" y="0">A</tspan><tspan x="68.6" y="0">TION</tspan></text><text class="cls-34" transform="translate(339.4 47.1)">SMART LIVING<tspan x="30" y="12" xml:space="preserve"> ORDERS</tspan></text><text class="cls-35" transform="translate(316.6 178.8)">SMART MOBILITY <tspan x="48.9" y="12">ORDERS</tspan></text></svg>