<svg id="Layer_1" data-name="Layer 1" xmlns="http://www.w3.org/2000/svg" xmlns:xlink="http://www.w3.org/1999/xlink" viewBox="0 0 440.5 248.2"><defs><style>.cls-1,.cls-31,.cls-32,.cls-35{fill:none;}.cls-2,.cls-23{fill:#009fe3;}.cls-3{fill:#0088c2;}.cls-22,.cls-4{fill:#00a19a;}.cls-33,.cls-34,.cls-5{fill:#fcc103;}.cls-6{fill:#ffd671;}.cls-26,.cls-7{fill:#83d0f5;}.cls-8{fill:#1c9cd9;}.cls-9{clip-path:url(#clip-path);}.cls-10{fill:#fcc006;}.cls-11{fill:url(#linear-gradient);}.cls-12{fill:url(#linear-gradient-2);}.cls-13{fill:url(#linear-gradient-3);}.cls-14{fill:url(#linear-gradient-4);}.cls-15{fill:url(#linear-gradient-5);}.cls-16{fill:url(#linear-gradient-6);}.cls-17{clip-path:url(#clip-path-2);}.cls-18{fill:url(#linear-gradient-7);}.cls-19{fill:#6ab0e2;}.cls-20,.cls-27{fill:#ffd36c;}.cls-21{fill:#d6a500;}.cls-22{stroke:#139389;}.cls-22,.cls-31,.cls-33,.cls-34{stroke-miterlimit:10;}.cls-23,.cls-25,.cls-26,.cls-27,.cls-29{font-size:10px;font-family:COCOGOOSE, COCOGOOSE;}.cls-24{letter-spacing:-0.14em;}.cls-25{fill:#fdc100;}.cls-28{font-size:8px;fill:#1d1d1b;font-family:Poppins-Light, Poppins;}.cls-29{fill:#2fac66;}.cls-30{fill:#fff;}.cls-31,.cls-32,.cls-33,.cls-34,.cls-35{stroke:#fff;}.cls-31{stroke-width:0.79px;}.cls-32,.cls-34,.cls-35{stroke-linecap:round;}.cls-32,.cls-35{stroke-linejoin:round;}.cls-32,.cls-33,.cls-34{stroke-width:1.26px;}.cls-35{stroke-width:1.52px;}</style><clipPath id="clip-path" transform="translate(-9 -11.8)"><rect class="cls-1" x="216.3" y="104.2" width="46.6" height="54.16"/></clipPath><linearGradient id="linear-gradient" x1="237.6" y1="116.13" x2="237.6" y2="116.13" gradientUnits="userSpaceOnUse"><stop offset="0" stop-color="#a1d8f6"/><stop offset="0.05" stop-color="#91d1f3"/><stop offset="0.18" stop-color="#6cc1eb"/><stop offset="0.32" stop-color="#4db3e4"/><stop offset="0.46" stop-color="#36a9df"/><stop offset="0.62" stop-color="#25a2dc"/><stop offset="0.79" stop-color="#1b9dda"/><stop offset="1" stop-color="#189cd9"/></linearGradient><linearGradient id="linear-gradient-2" x1="221.13" y1="133.04" x2="262.87" y2="133.04" xlink:href="#linear-gradient"/><linearGradient id="linear-gradient-3" x1="252.52" y1="136.69" x2="252.52" y2="136.69" xlink:href="#linear-gradient"/><linearGradient id="linear-gradient-4" x1="233.48" y1="123.43" x2="248.51" y2="123.43" xlink:href="#linear-gradient"/><linearGradient id="linear-gradient-5" x1="237.27" y1="136.43" x2="237.27" y2="136.43" xlink:href="#linear-gradient"/><linearGradient id="linear-gradient-6" x1="233.48" y1="141.89" x2="250.2" y2="141.89" xlink:href="#linear-gradient"/><clipPath id="clip-path-2" transform="translate(-9 -11.8)"><path class="cls-1" d="M221.3,103.2a4.8,4.8,0,0,0-1.9.9v12.4a.8.8,0,0,1-.8.8.9.9,0,0,1-.8-.8V105.8a17.6,17.6,0,0,0-2.4,9.2c0,5,1.7,9.2,4.2,11v31.4h4.7V140h0V126.1c2.5-1.7,4.3-6,4.3-11.1a17.6,17.6,0,0,0-2.4-9.2v10.7a.9.9,0,0,1-.8.8.8.8,0,0,1-.8-.8V104.1a7,7,0,0,0-1.7-.9v13.3a.9.9,0,0,1-.8.8.8.8,0,0,1-.8-.8Z"/></clipPath><linearGradient id="linear-gradient-7" x1="65.53" y1="263.25" x2="65.71" y2="263.25" gradientTransform="matrix(74.79, 0, 0, -74.79, -4694.55, 19806.77)" gradientUnits="userSpaceOnUse"><stop offset="0" stop-color="#ffe447"/><stop offset="0.08" stop-color="#fedd3b"/><stop offset="0.27" stop-color="#fdd024"/><stop offset="0.48" stop-color="#fdc713"/><stop offset="0.71" stop-color="#fcc209"/><stop offset="1" stop-color="#fcc006"/></linearGradient></defs><title>Product Categories_schema</title><path class="cls-2" d="M144.7,64.1A23.3,23.3,0,1,1,168,40.8,23.3,23.3,0,0,1,144.7,64.1Z" transform="translate(-9 -11.8)"/><path class="cls-3" d="M144.7,18a22.9,22.9,0,1,1-22.9,22.8A22.9,22.9,0,0,1,144.7,18m0-.8a23.7,23.7,0,1,0,23.7,23.6,23.7,23.7,0,0,0-23.7-23.6Z" transform="translate(-9 -11.8)"/><g id="_5" data-name="5"><path class="cls-4" d="M198.1,119.3a45.9,45.9,0,0,1,4.9-10.8l-13.5-29-31.8-2.3A98.5,98.5,0,0,0,159,187.8l11.9-29.4,32-3.9A43.6,43.6,0,0,1,198.1,119.3Z" transform="translate(-9 -11.8)"/></g><g id="_4" data-name="4"><path class="cls-5" d="M268.2,225.7l-24.3-20.4,6.1-31.6a43.8,43.8,0,0,1-22.7-.6,42.8,42.8,0,0,1-20.9-13.8l-31.8,4-12,29.5a98.4,98.4,0,0,0,105.6,32.9Z" transform="translate(-9 -11.8)"/></g><g id="_3" data-name="3"><path class="cls-6" d="M334,159.6a96.6,96.6,0,0,0,4-26.1l-26.9,16.8-28.2-15.6a40.4,40.4,0,0,1-1.7,9.2,43.3,43.3,0,0,1-25.4,27.9l-6.1,31.4L274,223.8A98.9,98.9,0,0,0,334,159.6Z" transform="translate(-9 -11.8)"/></g><g id="_2" data-name="2"><path class="cls-7" d="M271.9,38.7l7.6,30.8L256,91.5a43.2,43.2,0,0,1,26.9,37.2l28,15.5L338,127.4A98.2,98.2,0,0,0,271.9,38.7Z" transform="translate(-9 -11.8)"/></g><g id="_1" data-name="1"><path class="cls-8" d="M250.3,89.6l23.4-21.8-7.7-31A98.1,98.1,0,0,0,161.2,72.2l31.7,2.3,13.7,29.1A43.2,43.2,0,0,1,250.3,89.6Z" transform="translate(-9 -11.8)"/></g><g class="cls-9"><path class="cls-10" d="M258.1,129.1" transform="translate(-9 -11.8)"/><polygon class="cls-11" points="237.6 116.1 237.6 116.1 237.6 116.1 237.6 116.1"/><path class="cls-12" d="M261.3,135.5h0a19,19,0,0,0-3-4.4,10.5,10.5,0,0,0,1.5-3h0a13.5,13.5,0,0,0,.9-5,15.3,15.3,0,0,0-1.2-6h0a14.7,14.7,0,0,0-3.3-4.8,15.1,15.1,0,0,0-4.9-3.3h0a14.5,14.5,0,0,0-5.9-1.2H227.5a14.2,14.2,0,0,1,1.2,3.3h16.7a11.8,11.8,0,0,1,4.6.9h0a12.8,12.8,0,0,1,3.8,2.6,11.6,11.6,0,0,1,2.6,3.9,11.4,11.4,0,0,1,.9,4.6,11.8,11.8,0,0,1-.6,3.9,10.1,10.1,0,0,1-1.8,3.2l-1.1,1.2,1.2,1.1a13.1,13.1,0,0,1,3.3,4.4,12.6,12.6,0,0,1,1.1,5.5,12.8,12.8,0,0,1-.9,4.8h0a14.1,14.1,0,0,1-2.7,4,12.1,12.1,0,0,1-3.9,2.8,12.3,12.3,0,0,1-4.6,1H224.6V125.3a4.1,4.1,0,0,1-1.9.4l-1.5-.3v29.9a3.4,3.4,0,0,0,1,2.3h0a3.3,3.3,0,0,0,2.1.7h23a13.8,13.8,0,0,0,6-1.3h0a16.6,16.6,0,0,0,4.9-3.4h0a17.2,17.2,0,0,0,3.3-5.1,14.2,14.2,0,0,0,1.3-6.1A16.5,16.5,0,0,0,261.3,135.5Z" transform="translate(-9 -11.8)"/><polygon class="cls-13" points="252.5 136.7 252.5 136.7 252.5 136.7 252.5 136.7"/><path class="cls-14" d="M248,121h0a8.6,8.6,0,0,0-1.3-2h0a7.7,7.7,0,0,0-2.1-1.4h0a7.5,7.5,0,0,0-2.6-.4h-8.5v12.5h8.4a7.5,7.5,0,0,0,2.6-.4h0a6,6,0,0,0,2.1-1.4A5.2,5.2,0,0,0,248,126h0a7.5,7.5,0,0,0,.5-2.6A6.9,6.9,0,0,0,248,121Zm-3.1,3.6a3.3,3.3,0,0,1-.6,1h0l-1,.5a2.9,2.9,0,0,1-1.4.3h-5v-5.9H242l1.3.2,1,.7a1.5,1.5,0,0,1,.6.9,2,2,0,0,1,.2,1.1,2.2,2.2,0,0,1-.2,1.2l1.5.7Z" transform="translate(-9 -11.8)"/><polygon class="cls-15" points="237.3 136.4 237.3 136.4 237.3 136.4 237.3 136.4"/><path class="cls-16" d="M233.5,148.9h10.1a5.4,5.4,0,0,0,2.7-.7,5,5,0,0,0,2-1.5h0a7.4,7.4,0,0,0,1.4-2.2h0a8,8,0,0,0,.5-2.6,7,7,0,0,0-.5-2.5,8,8,0,0,0-1.3-2.2h0a6.5,6.5,0,0,0-2.1-1.6h0a5.2,5.2,0,0,0-2.7-.7H233.5Zm3.4-10.6h6.7a2.5,2.5,0,0,1,1.2.2,4.8,4.8,0,0,1,1.1.9,3.5,3.5,0,0,1,.7,1.2,3,3,0,0,1,.2,1.3,6.8,6.8,0,0,1-.2,1.4l1.5.6-1.5-.6a4.1,4.1,0,0,1-.7,1.1,4.4,4.4,0,0,1-1.1.9h0l-1.2.2h-6.7Z" transform="translate(-9 -11.8)"/></g><g class="cls-17"><rect class="cls-18" x="206.4" y="91.4" width="13.1" height="54.17"/></g><path class="cls-7" d="M340.5,58.8a23.3,23.3,0,1,1,23.3-23.3A23.4,23.4,0,0,1,340.5,58.8Z" transform="translate(-9 -11.8)"/><path class="cls-19" d="M340.5,12.6a22.9,22.9,0,1,1-22.9,22.9,23,23,0,0,1,22.9-22.9m0-.8a23.7,23.7,0,1,0,23.7,23.7,23.7,23.7,0,0,0-23.7-23.7Z" transform="translate(-9 -11.8)"/><path class="cls-20" d="M365.6,194.3a23.3,23.3,0,1,1,23.3-23.2A23.2,23.2,0,0,1,365.6,194.3Z" transform="translate(-9 -11.8)"/><path class="cls-5" d="M365.6,148.2a22.9,22.9,0,1,1-22.8,22.9,23,23,0,0,1,22.8-22.9m0-.8a23.7,23.7,0,1,0,23.7,23.7,23.7,23.7,0,0,0-23.7-23.7Z" transform="translate(-9 -11.8)"/><path class="cls-5" d="M158,252a22.7,22.7,0,1,1,22.7-22.6A22.6,22.6,0,0,1,158,252Z" transform="translate(-9 -11.8)"/><path class="cls-21" d="M158,207.1a22.3,22.3,0,1,1-22.3,22.3A22.3,22.3,0,0,1,158,207.1m0-.7a23,23,0,1,0,23,23,23,23,0,0,0-23-23Z" transform="translate(-9 -11.8)"/><circle class="cls-22" cx="100.5" cy="117.6" r="23"/><text class="cls-23" transform="translate(18 17.6)">RES<tspan class="cls-24" x="20.3" y="0">T</tspan><tspan x="25.6" y="0">AURANT</tspan></text><text class="cls-25" transform="translate(12 200.1)">NON-PREP </text><text class="cls-26" transform="translate(357.3 48.6)">PREPPED FOOD</text><text class="cls-27" transform="translate(382.9 197.1)">RE<tspan class="cls-24" x="13.8" y="0">T</tspan><tspan x="19.1" y="0">AIL </tspan></text><text class="cls-28" transform="translate(17 32.8)">Phase 1.0 -<tspan x="0" y="9.6">Restaurant Delivery</tspan></text><text class="cls-29" transform="translate(0 104.6)">P2P </text><text class="cls-28" transform="translate(0 118.3)">Phase 4.0 -<tspan x="0" y="9.6">Peer 2 Peer Food </tspan><tspan x="0" y="19.2">Services</tspan></text><text class="cls-28" transform="translate(334.5 63.6)">Phase 1.0 -<tspan x="0" y="9.6">Online Takeaway</tspan></text><text class="cls-28" transform="translate(12 213.1)">Phase 3.0 -<tspan x="0" y="9.6">Online Non-Prep</tspan></text><text class="cls-28" transform="translate(331.5 210.1)">Phase 2.0 -<tspan x="0" y="9.6">Online Retail</tspan></text><path class="cls-30" d="M156.8,50l-9.9-9.9L135.6,28.7l-.6-.2h-.1c-.3,0-.5.2-.7.5h0a9.6,9.6,0,0,0-.6,3.7,6.3,6.3,0,0,0,1.5,3.3l8.5,8.5a.8.8,0,0,0,1.1,0h.1a.8.8,0,0,1,1.1,0l7.8,8.8a2.2,2.2,0,0,0,3.1,0h0A2.2,2.2,0,0,0,156.8,50Z" transform="translate(-9 -11.8)"/><path class="cls-30" d="M132.9,50a2.2,2.2,0,0,0,0,3.2,2.2,2.2,0,0,0,3.1,0l7.1-7.1L140,42.9Z" transform="translate(-9 -11.8)"/><path class="cls-30" d="M149.7,40.1a4.5,4.5,0,0,0,2.7-1.2l4.6-4.6a.9.9,0,0,0,0-1h0a.8.8,0,0,0-1.1,0l-3,2.9a.7.7,0,0,1-1,0h0a.7.7,0,0,1,0-1l3-3a.9.9,0,0,0,0-1h0a.8.8,0,0,0-1.1,0l-3,2.9a.7.7,0,0,1-1,0h0a.7.7,0,0,1,0-1l3-3a.7.7,0,0,0,0-1h0a.8.8,0,0,0-1.1,0L147,33.8a4.1,4.1,0,0,0-1.1,2.4v.3a.7.7,0,0,0,.2.7l2.8,2.8.6.2Z" transform="translate(-9 -11.8)"/><path class="cls-30" d="M234.8,73l-9.9-9.9L213.6,51.7l-.6-.2h-.1c-.3,0-.5.2-.7.5h0a9.6,9.6,0,0,0-.6,3.7,6.3,6.3,0,0,0,1.5,3.3l8.5,8.5a.8.8,0,0,0,1.1,0h.1a.8.8,0,0,1,1.1,0l7.8,8.8a2.2,2.2,0,0,0,3.1,0h0A2.2,2.2,0,0,0,234.8,73Z" transform="translate(-9 -11.8)"/><path class="cls-30" d="M210.9,73a2.2,2.2,0,0,0,0,3.2,2.2,2.2,0,0,0,3.1,0l7.1-7.1L218,65.9Z" transform="translate(-9 -11.8)"/><path class="cls-30" d="M227.7,63.1a4.5,4.5,0,0,0,2.7-1.2l4.6-4.6a.9.9,0,0,0,0-1h0a.8.8,0,0,0-1.1,0l-3,2.9a.7.7,0,0,1-1,0h0a.7.7,0,0,1,0-1l3-3a.9.9,0,0,0,0-1h0a.8.8,0,0,0-1.1,0l-3,2.9a.7.7,0,0,1-1,0h0a.7.7,0,0,1,0-1l3-3a.7.7,0,0,0,0-1h0a.8.8,0,0,0-1.1,0L225,56.8a4.1,4.1,0,0,0-1.1,2.4v.3a.7.7,0,0,0,.2.7l2.8,2.8.6.2Z" transform="translate(-9 -11.8)"/><path class="cls-31" d="M351.4,33.3H329.9a.6.6,0,0,0-.1.6h0a6.6,6.6,0,0,0,1.5,2.1,3.6,3.6,0,0,0,2.4.9h8.4a.6.6,0,0,0,.6-.5h0c0-.3.2-.6.5-.5l8.2.4a1.6,1.6,0,0,0,1.6-1.5h0A1.6,1.6,0,0,0,351.4,33.3Z" transform="translate(-9 -11.8)"/><path class="cls-31" d="M347.2,42.9h4.6a.5.5,0,0,0,.5-.5h0a.5.5,0,0,0-.5-.5h-3a.5.5,0,0,1-.5-.5h0a.6.6,0,0,1,.5-.6h3a.5.5,0,0,0,.5-.5h0a.5.5,0,0,0-.5-.5h-3a.5.5,0,0,1-.5-.5h0a.5.5,0,0,1,.5-.5h3a.6.6,0,0,0,.5-.6h0a.6.6,0,0,0-.5-.5h-4.7a2.4,2.4,0,0,0-1.7.7h-.2l-13.2.3a1.5,1.5,0,0,0-1.5,1.5,1.6,1.6,0,0,0,1.5,1.6h13.1A2.6,2.6,0,0,0,347.2,42.9Z" transform="translate(-9 -11.8)"/><path class="cls-30" d="M321.9,32.2h20.9a.7.7,0,0,1,.7.7v1.3a2,2,0,0,1-2,2H323.3a2.1,2.1,0,0,1-2.1-2.1V33A.7.7,0,0,1,321.9,32.2Z"/><path class="cls-30" d="M331.5,31.9a1.2,1.2,0,0,1-1.2-1.3c.8-4.9,5.4-8.6,11.1-8.6s10.3,3.7,11,8.6a1.1,1.1,0,0,1-1.2,1.3Z" transform="translate(-9 -11.8)"/><path class="cls-31" d="M312.4,95.1H291.3l-.4.2h0a.7.7,0,0,0-.1.6h0a5.7,5.7,0,0,0,1.5,2.1,3.7,3.7,0,0,0,2.4,1h8.4a.6.6,0,0,0,.6-.6h0a.5.5,0,0,1,.5-.5l8.2.5a1.6,1.6,0,0,0,1.6-1.6h0A1.6,1.6,0,0,0,312.4,95.1Z" transform="translate(-9 -11.8)"/><path class="cls-31" d="M308.2,104.8h4.6a.5.5,0,0,0,.5-.5h0a.6.6,0,0,0-.5-.6h-3a.5.5,0,0,1-.5-.5h0a.5.5,0,0,1,.5-.5h3a.5.5,0,0,0,.5-.5h0a.5.5,0,0,0-.5-.5h-3a.6.6,0,0,1-.5-.6h0a.5.5,0,0,1,.5-.5h3a.5.5,0,0,0,.5-.5h0a.5.5,0,0,0-.5-.5h-4.7a2.4,2.4,0,0,0-1.7.6c-.1.1-.2.1-.2.2l-13.2.2a1.6,1.6,0,0,0-1.5,1.6,1.5,1.5,0,0,0,1.5,1.5h13.1A2.9,2.9,0,0,0,308.2,104.8Z" transform="translate(-9 -11.8)"/><path class="cls-30" d="M282.9,94.1h20.9a.7.7,0,0,1,.7.7v1.3a2,2,0,0,1-2,2H284.3a2.1,2.1,0,0,1-2.1-2.1V94.8A.7.7,0,0,1,282.9,94.1Z"/><path class="cls-30" d="M292.5,93.8a1.3,1.3,0,0,1-1.2-1.4c.8-4.8,5.4-8.6,11.1-8.6s10.3,3.8,11,8.6a1.2,1.2,0,0,1-1.2,1.4Z" transform="translate(-9 -11.8)"/><path class="cls-30" d="M379.7,161.3v3H354.1v-3h25.6m-1.4,6.2v.9h.6l.3.6v.6c0,.1,0,.2-.1.2l-.6.4v12.9H355.2V170.2l-.6-.4V169l.3-.6h.6v-.9h22.8m2-7.5H353.5a.8.8,0,0,0-.8.8v4.1a.9.9,0,0,0,.8.8h2.3v.4h-1.9v.5h.3v.5h-.3v.5l-.7,1.1v.9a1.7,1.7,0,0,0,.7,1.3v5.7h-.2v.5h.2v3.4h-.2v.5h.2v2.4h-.1c-.1,0-.2.1-.2.3v.7h26.6v-.7a.3.3,0,0,0-.3-.3h0v-4.2h.2v-.5h-.2v-7.8a1.7,1.7,0,0,0,.7-1.3v-.9l-.7-1.1v-.5h-.3v-.5h.3v-.5H378v-.4h2.3a.9.9,0,0,0,.8-.8v-4.1a.8.8,0,0,0-.8-.8Zm-24.1,6.1v-.4h21.4v.4Z" transform="translate(-9 -11.8)"/><path class="cls-30" d="M373.7,176.8V183h-2.8v-6.2h2.8m1.4-1.3h-5.5v8.8h5.5v-8.8Z" transform="translate(-9 -11.8)"/><path class="cls-30" d="M304.7,169.3v3H279.1v-3h25.6m-1.4,6.2v.9h.6l.3.6v.6c0,.1,0,.2-.1.2l-.6.4v12.9H280.2V178.2l-.6-.4V177l.3-.6h.6v-.9h22.8m2-7.5H278.5a.8.8,0,0,0-.8.8v4.1a.9.9,0,0,0,.8.8h2.3v.4h-1.9v.5h.3v.5h-.3v.5l-.7,1.1v.9a1.7,1.7,0,0,0,.7,1.3v5.7h-.2v.5h.2v3.4h-.2v.5h.2v2.4h-.1c-.1,0-.2.1-.2.3v.7h26.6v-.7a.3.3,0,0,0-.3-.3h0v-4.2h.2v-.5h-.2v-7.8a1.7,1.7,0,0,0,.7-1.3v-.9l-.7-1.1v-.5h-.3v-.5h.3v-.5H303v-.4h2.3a.9.9,0,0,0,.8-.8v-4.1a.8.8,0,0,0-.8-.8Zm-24.1,6.1v-.4h21.4v.4Z" transform="translate(-9 -11.8)"/><path class="cls-30" d="M298.7,184.8V191h-2.8v-6.2h2.8m1.4-1.3h-5.5v8.8h5.5v-8.8Z" transform="translate(-9 -11.8)"/><path class="cls-32" d="M147.7,226.8a6,6,0,0,1,7,.7" transform="translate(-9 -11.8)"/><path class="cls-32" d="M149.8,227.4s-3.5-2.2-6.6,2,.1,10.5,2,12.6,4.6-.3,4.6-.3,2.6,3,4.9,1.3a12.6,12.6,0,0,0,4.6-10.3c-.3-4.2-3.8-5.6-6.8-4.9" transform="translate(-9 -11.8)"/><path class="cls-32" d="M150.3,229a9.5,9.5,0,0,1-1.4-9.4S153.2,223.8,150.3,229Z" transform="translate(-9 -11.8)"/><path class="cls-32" d="M155,223.9a8.7,8.7,0,0,0-4.5,5.3" transform="translate(-9 -11.8)"/><path class="cls-33" d="M166.4,233.6c-1.4,2.1-12.1,14.5-14.3,13.1s4.9-16.2,6.4-18.4a4.8,4.8,0,0,1,7.9,5.3Z" transform="translate(-9 -11.8)"/><path class="cls-34" d="M161.7,233.6a7.5,7.5,0,0,0,3.2,1.8" transform="translate(-9 -11.8)"/><path class="cls-34" d="M155.9,233.3a7.8,7.8,0,0,0,3,2.3" transform="translate(-9 -11.8)"/><path class="cls-34" d="M155.3,238.1a8,8,0,0,0,2.9,2.3" transform="translate(-9 -11.8)"/><path class="cls-34" d="M154.5,242.8a3.5,3.5,0,0,0,2,1.5" transform="translate(-9 -11.8)"/><path class="cls-32" d="M164.3,228.5s1.8-2.7-.1-11.7l-2.1,3.8" transform="translate(-9 -11.8)"/><line class="cls-32" x1="155.7" y1="208.5" x2="154" y2="210.9"/><line class="cls-32" x1="155.4" y1="205.2" x2="157.8" y2="206.9"/><line class="cls-32" x1="155.8" y1="208.3" x2="158" y2="210.3"/><path class="cls-32" d="M164.3,228.5s1.4-2.9,10.2-5.7l-2.3,3.7" transform="translate(-9 -11.8)"/><line class="cls-32" x1="162.2" y1="212.3" x2="160.9" y2="214.9"/><line class="cls-32" x1="165.2" y1="210.9" x2="162.5" y2="209.6"/><line class="cls-32" x1="162.3" y1="212.1" x2="159.5" y2="211.2"/><path class="cls-32" d="M197.8,189.5a6,6,0,0,1,7.1.8" transform="translate(-9 -11.8)"/><path class="cls-32" d="M199.9,190.2s-3.5-2.2-6.5,1.9,0,10.5,2,12.6,4.5-.3,4.5-.3,2.6,3,4.9,1.3a12.8,12.8,0,0,0,4.7-10.2c-.3-4.3-3.9-5.6-6.9-5" transform="translate(-9 -11.8)"/><path class="cls-32" d="M200.5,191.7a9,9,0,0,1-1.4-9.3S203.4,186.6,200.5,191.7Z" transform="translate(-9 -11.8)"/><path class="cls-32" d="M205.1,186.7a8.4,8.4,0,0,0-4.5,5.2" transform="translate(-9 -11.8)"/><path class="cls-33" d="M216.6,196.3c-1.5,2.2-12.2,14.6-14.4,13.1s5-16.1,6.4-18.3a4.8,4.8,0,1,1,8,5.2Z" transform="translate(-9 -11.8)"/><path class="cls-34" d="M211.8,196.3a8.2,8.2,0,0,0,3.3,1.9" transform="translate(-9 -11.8)"/><path class="cls-34" d="M206.1,196.1a8,8,0,0,0,2.9,2.3" transform="translate(-9 -11.8)"/><path class="cls-34" d="M205.4,200.8a7.8,7.8,0,0,0,3,2.3" transform="translate(-9 -11.8)"/><path class="cls-34" d="M204.6,205.6a4.5,4.5,0,0,0,2.1,1.5" transform="translate(-9 -11.8)"/><path class="cls-32" d="M214.4,191.3s1.8-2.7-.1-11.7l-2,3.7" transform="translate(-9 -11.8)"/><line class="cls-32" x1="205.8" y1="171.2" x2="204.2" y2="173.7"/><line class="cls-32" x1="205.6" y1="167.9" x2="208" y2="169.7"/><line class="cls-32" x1="205.9" y1="171.1" x2="208.1" y2="173.1"/><path class="cls-32" d="M214.4,191.3s1.5-2.9,10.3-5.7l-2.3,3.6" transform="translate(-9 -11.8)"/><line class="cls-32" x1="212.4" y1="175" x2="211.1" y2="177.7"/><line class="cls-32" x1="215.4" y1="173.6" x2="212.7" y2="172.4"/><line class="cls-32" x1="212.4" y1="174.9" x2="209.6" y2="174"/><polyline class="cls-35" points="97.9 124.1 93.5 124.1 93.5 129.2 85.4 121.1 93.4 113.1 93.4 118.2 97.8 118.2 102.5 118.2 106.9 118.2 106.9 123.3 115 115.2 107 107.2 107 112.3 102.7 112.3"/><line class="cls-35" x1="100.1" y1="124" x2="101.9" y2="124"/><line class="cls-35" x1="104" y1="124.1" x2="104.9" y2="124.1"/><line class="cls-35" x1="100.5" y1="112.3" x2="98.7" y2="112.3"/><line class="cls-35" x1="96.6" y1="112.3" x2="95.7" y2="112.3"/><polyline class="cls-35" points="160.4 118.6 156 118.6 156 123.7 147.9 115.6 155.9 107.6 155.9 112.7 160.3 112.7 165 112.7 169.4 112.7 169.4 117.8 177.5 109.7 169.5 101.7 169.5 106.8 165.2 106.8"/><line class="cls-35" x1="162.6" y1="118.5" x2="164.4" y2="118.5"/><line class="cls-35" x1="166.5" y1="118.6" x2="167.4" y2="118.6"/><line class="cls-35" x1="163" y1="106.8" x2="161.2" y2="106.8"/><line class="cls-35" x1="159.1" y1="106.8" x2="158.2" y2="106.8"/></svg>